%TF.GenerationSoftware,KiCad,Pcbnew,9.0.7*%
%TF.CreationDate,2026-01-26T13:03:19+01:00*%
%TF.ProjectId,PTPseminarLNv2,50545073-656d-4696-9e61-724c4e76322e,rev?*%
%TF.SameCoordinates,Original*%
%TF.FileFunction,Plated,1,2,PTH,Drill*%
%TF.FilePolarity,Positive*%
%FSLAX46Y46*%
G04 Gerber Fmt 4.6, Leading zero omitted, Abs format (unit mm)*
G04 Created by KiCad (PCBNEW 9.0.7) date 2026-01-26 13:03:19*
%MOMM*%
%LPD*%
G01*
G04 APERTURE LIST*
%TA.AperFunction,ViaDrill*%
%ADD10C,0.300000*%
%TD*%
%TA.AperFunction,ComponentDrill*%
%ADD11C,0.800000*%
%TD*%
%TA.AperFunction,ComponentDrill*%
%ADD12C,1.000000*%
%TD*%
%TA.AperFunction,ComponentDrill*%
%ADD13C,1.016000*%
%TD*%
%TA.AperFunction,ComponentDrill*%
%ADD14C,1.020000*%
%TD*%
%TA.AperFunction,ComponentDrill*%
%ADD15C,1.500000*%
%TD*%
%TA.AperFunction,ComponentDrill*%
%ADD16C,2.000000*%
%TD*%
G04 APERTURE END LIST*
D10*
X111500000Y-90000000D03*
X113500000Y-90500000D03*
X114000000Y-85000000D03*
X116500000Y-86500000D03*
X118250000Y-99000000D03*
X121250000Y-96750000D03*
X124500000Y-104500000D03*
X126750000Y-75250000D03*
X127000000Y-70000000D03*
X129000000Y-100500000D03*
X129500000Y-69500000D03*
X129750000Y-75750000D03*
X132000000Y-70500000D03*
X133500000Y-69000000D03*
X134000000Y-71000000D03*
X136000000Y-72000000D03*
X139000000Y-87500000D03*
X143750000Y-88750000D03*
X145750000Y-77500000D03*
X146000000Y-71500000D03*
X146250000Y-91250000D03*
X147250000Y-95750000D03*
X148000000Y-83000000D03*
X148944330Y-76944330D03*
X151500000Y-72000000D03*
X151750000Y-87750000D03*
X152000000Y-93000000D03*
X152000000Y-94750000D03*
X153250000Y-85500000D03*
X155500000Y-81000000D03*
X156250000Y-70750000D03*
X157750000Y-72250000D03*
X159250000Y-77500000D03*
X159250000Y-101500000D03*
X159500000Y-80250000D03*
X160000000Y-79500000D03*
X160500000Y-69750000D03*
X160500000Y-75750000D03*
X161750000Y-83000000D03*
X162125000Y-76375000D03*
X162750000Y-79250000D03*
X162750000Y-86750000D03*
X162750000Y-88000000D03*
X163000000Y-84500000D03*
X164000000Y-82750000D03*
X164250000Y-84500000D03*
X165500000Y-130500000D03*
X166000000Y-72750000D03*
X166250000Y-74250000D03*
X166250000Y-108500000D03*
X166500000Y-80500000D03*
X166750000Y-82500000D03*
X167500000Y-84250000D03*
X171500000Y-131000000D03*
X173250000Y-66000000D03*
X174500000Y-73750000D03*
X175500000Y-79500000D03*
X175750000Y-66750000D03*
X176500000Y-73250000D03*
X176750000Y-75500000D03*
X178000000Y-95750000D03*
X178500000Y-93750000D03*
X178850000Y-97600000D03*
X181250000Y-93500000D03*
X184500000Y-111500000D03*
X185500000Y-93500000D03*
X188500000Y-89500000D03*
X190250000Y-90250000D03*
D11*
%TO.C,J2*%
X137500000Y-64984603D03*
X137500000Y-66984603D03*
%TO.C,FB1*%
X167920000Y-78500000D03*
X173000000Y-78500000D03*
%TO.C,SW1*%
X183000000Y-107902500D03*
X185000000Y-107902500D03*
X187000000Y-107902500D03*
D12*
%TO.C,U3*%
X134190000Y-105000000D03*
X136730000Y-105000000D03*
X139270000Y-105000000D03*
X141810000Y-105000000D03*
D13*
%TO.C,J5*%
X168174000Y-126476000D03*
X168174000Y-129016000D03*
X170714000Y-126476000D03*
X170714000Y-129016000D03*
X173500000Y-126476000D03*
X173500000Y-129000000D03*
D14*
%TO.C,J3*%
X121107660Y-64984603D03*
X123647660Y-64984603D03*
X126187660Y-64984603D03*
X128727660Y-64984603D03*
%TO.C,J4*%
X143107660Y-64984603D03*
X145647660Y-64984603D03*
X148187660Y-64984603D03*
X150727660Y-64984603D03*
D15*
%TO.C,SW1*%
X180900000Y-107902500D03*
X189100000Y-107902500D03*
D16*
%TO.C,U3*%
X127000000Y-105500000D03*
X127000000Y-127500000D03*
X149000000Y-105500000D03*
X149000000Y-127500000D03*
M02*
