%TF.GenerationSoftware,KiCad,Pcbnew,9.0.7*%
%TF.CreationDate,2026-01-26T12:56:13+01:00*%
%TF.ProjectId,PTPseminarLNv2,50545073-656d-4696-9e61-724c4e76322e,rev?*%
%TF.SameCoordinates,Original*%
%TF.FileFunction,Copper,L1,Top*%
%TF.FilePolarity,Positive*%
%FSLAX46Y46*%
G04 Gerber Fmt 4.6, Leading zero omitted, Abs format (unit mm)*
G04 Created by KiCad (PCBNEW 9.0.7) date 2026-01-26 12:56:13*
%MOMM*%
%LPD*%
G01*
G04 APERTURE LIST*
G04 Aperture macros list*
%AMRoundRect*
0 Rectangle with rounded corners*
0 $1 Rounding radius*
0 $2 $3 $4 $5 $6 $7 $8 $9 X,Y pos of 4 corners*
0 Add a 4 corners polygon primitive as box body*
4,1,4,$2,$3,$4,$5,$6,$7,$8,$9,$2,$3,0*
0 Add four circle primitives for the rounded corners*
1,1,$1+$1,$2,$3*
1,1,$1+$1,$4,$5*
1,1,$1+$1,$6,$7*
1,1,$1+$1,$8,$9*
0 Add four rect primitives between the rounded corners*
20,1,$1+$1,$2,$3,$4,$5,0*
20,1,$1+$1,$4,$5,$6,$7,0*
20,1,$1+$1,$6,$7,$8,$9,0*
20,1,$1+$1,$8,$9,$2,$3,0*%
G04 Aperture macros list end*
%TA.AperFunction,ComponentPad*%
%ADD10C,1.879600*%
%TD*%
%TA.AperFunction,SMDPad,CuDef*%
%ADD11R,1.150000X3.800000*%
%TD*%
%TA.AperFunction,SMDPad,CuDef*%
%ADD12R,1.350000X0.750000*%
%TD*%
%TA.AperFunction,ComponentPad*%
%ADD13R,1.350000X1.350000*%
%TD*%
%TA.AperFunction,ComponentPad*%
%ADD14C,1.350000*%
%TD*%
%TA.AperFunction,ComponentPad*%
%ADD15R,1.730000X2.030000*%
%TD*%
%TA.AperFunction,ComponentPad*%
%ADD16O,1.730000X2.030000*%
%TD*%
%TA.AperFunction,SMDPad,CuDef*%
%ADD17RoundRect,0.250000X0.650000X-0.412500X0.650000X0.412500X-0.650000X0.412500X-0.650000X-0.412500X0*%
%TD*%
%TA.AperFunction,SMDPad,CuDef*%
%ADD18RoundRect,0.250000X-0.625000X0.400000X-0.625000X-0.400000X0.625000X-0.400000X0.625000X0.400000X0*%
%TD*%
%TA.AperFunction,SMDPad,CuDef*%
%ADD19RoundRect,0.250000X0.625000X-0.400000X0.625000X0.400000X-0.625000X0.400000X-0.625000X-0.400000X0*%
%TD*%
%TA.AperFunction,SMDPad,CuDef*%
%ADD20O,1.600000X0.600000*%
%TD*%
%TA.AperFunction,SMDPad,CuDef*%
%ADD21O,0.600000X1.600000*%
%TD*%
%TA.AperFunction,SMDPad,CuDef*%
%ADD22RoundRect,0.250000X0.400000X0.625000X-0.400000X0.625000X-0.400000X-0.625000X0.400000X-0.625000X0*%
%TD*%
%TA.AperFunction,SMDPad,CuDef*%
%ADD23RoundRect,0.250000X-0.400000X-0.625000X0.400000X-0.625000X0.400000X0.625000X-0.400000X0.625000X0*%
%TD*%
%TA.AperFunction,SMDPad,CuDef*%
%ADD24RoundRect,0.250000X0.412500X0.650000X-0.412500X0.650000X-0.412500X-0.650000X0.412500X-0.650000X0*%
%TD*%
%TA.AperFunction,ComponentPad*%
%ADD25R,1.508000X1.508000*%
%TD*%
%TA.AperFunction,ComponentPad*%
%ADD26C,1.508000*%
%TD*%
%TA.AperFunction,ComponentPad*%
%ADD27C,3.000000*%
%TD*%
%TA.AperFunction,SMDPad,CuDef*%
%ADD28RoundRect,0.075000X0.662500X0.075000X-0.662500X0.075000X-0.662500X-0.075000X0.662500X-0.075000X0*%
%TD*%
%TA.AperFunction,SMDPad,CuDef*%
%ADD29RoundRect,0.075000X0.075000X0.662500X-0.075000X0.662500X-0.075000X-0.662500X0.075000X-0.662500X0*%
%TD*%
%TA.AperFunction,SMDPad,CuDef*%
%ADD30RoundRect,0.250000X-0.412500X-0.650000X0.412500X-0.650000X0.412500X0.650000X-0.412500X0.650000X0*%
%TD*%
%TA.AperFunction,SMDPad,CuDef*%
%ADD31R,2.000000X0.500000*%
%TD*%
%TA.AperFunction,SMDPad,CuDef*%
%ADD32R,1.700000X2.000000*%
%TD*%
%TA.AperFunction,SMDPad,CuDef*%
%ADD33RoundRect,0.250001X0.462499X0.624999X-0.462499X0.624999X-0.462499X-0.624999X0.462499X-0.624999X0*%
%TD*%
%TA.AperFunction,ComponentPad*%
%ADD34O,2.200000X3.500000*%
%TD*%
%TA.AperFunction,ComponentPad*%
%ADD35R,1.500000X2.500000*%
%TD*%
%TA.AperFunction,ComponentPad*%
%ADD36O,1.500000X2.500000*%
%TD*%
%TA.AperFunction,SMDPad,CuDef*%
%ADD37RoundRect,0.250000X0.500000X0.300000X-0.500000X0.300000X-0.500000X-0.300000X0.500000X-0.300000X0*%
%TD*%
%TA.AperFunction,ComponentPad*%
%ADD38C,2.000000*%
%TD*%
%TA.AperFunction,SMDPad,CuDef*%
%ADD39R,1.000000X1.100000*%
%TD*%
%TA.AperFunction,SMDPad,CuDef*%
%ADD40R,1.000000X2.200000*%
%TD*%
%TA.AperFunction,SMDPad,CuDef*%
%ADD41R,0.850000X1.100000*%
%TD*%
%TA.AperFunction,SMDPad,CuDef*%
%ADD42RoundRect,0.250000X-0.350000X0.850000X-0.350000X-0.850000X0.350000X-0.850000X0.350000X0.850000X0*%
%TD*%
%TA.AperFunction,SMDPad,CuDef*%
%ADD43RoundRect,0.249997X-2.650003X2.950003X-2.650003X-2.950003X2.650003X-2.950003X2.650003X2.950003X0*%
%TD*%
%TA.AperFunction,ViaPad*%
%ADD44C,0.600000*%
%TD*%
%TA.AperFunction,Conductor*%
%ADD45C,0.500000*%
%TD*%
%TA.AperFunction,Conductor*%
%ADD46C,0.300000*%
%TD*%
%TA.AperFunction,Conductor*%
%ADD47C,0.200000*%
%TD*%
%TA.AperFunction,Conductor*%
%ADD48C,1.000000*%
%TD*%
G04 APERTURE END LIST*
D10*
%TO.P,J5,1,VCC*%
%TO.N,+3.3V*%
X168174000Y-129016000D03*
%TO.P,J5,2,SWDIO*%
%TO.N,SWDIO*%
X168174000Y-126476000D03*
%TO.P,J5,3,~{RESET}*%
%TO.N,unconnected-(J5-~{RESET}-Pad3)*%
X173500000Y-129000000D03*
%TO.P,J5,4,SWCLK*%
%TO.N,SWCLK*%
X170714000Y-126476000D03*
%TO.P,J5,5,GND*%
%TO.N,GND*%
X170714000Y-129016000D03*
%TO.P,J5,6,SWO*%
%TO.N,unconnected-(J5-SWO-Pad6)*%
X173500000Y-126476000D03*
%TD*%
D11*
%TO.P,AE1,1*%
%TO.N,GND*%
X160725000Y-129000000D03*
%TO.P,AE1,2*%
X155275000Y-129000000D03*
D12*
%TO.P,AE1,3*%
%TO.N,GPSANT*%
X157075000Y-127475000D03*
%TD*%
D13*
%TO.P,J2,1,Pin_1*%
%TO.N,VD*%
X137500000Y-64984603D03*
D14*
%TO.P,J2,2,Pin_2*%
%TO.N,GND*%
X137500000Y-66984603D03*
%TD*%
D15*
%TO.P,J4,1,Pin_1*%
%TO.N,MP*%
X143107660Y-64984603D03*
D16*
%TO.P,J4,2,Pin_2*%
%TO.N,MN*%
X145647660Y-64984603D03*
%TO.P,J4,3,Pin_3*%
%TO.N,SP*%
X148187660Y-64984603D03*
%TO.P,J4,4,Pin_4*%
%TO.N,SN*%
X150727660Y-64984603D03*
%TD*%
D17*
%TO.P,C10,1*%
%TO.N,+3.3VA*%
X185150000Y-80125000D03*
%TO.P,C10,2*%
%TO.N,GND*%
X185150000Y-77000000D03*
%TD*%
D18*
%TO.P,R3,1*%
%TO.N,Net-(U1-SIM_DATA)*%
X121000000Y-105900000D03*
%TO.P,R3,2*%
%TO.N,SIMDATA*%
X121000000Y-109000000D03*
%TD*%
D15*
%TO.P,J3,1,Pin_1*%
%TO.N,VD*%
X121107660Y-64984603D03*
D16*
%TO.P,J3,2,Pin_2*%
%TO.N,TX*%
X123647660Y-64984603D03*
%TO.P,J3,3,Pin_3*%
%TO.N,RX*%
X126187660Y-64984603D03*
%TO.P,J3,4,Pin_4*%
%TO.N,GND*%
X128727660Y-64984603D03*
%TD*%
D19*
%TO.P,R5,1*%
%TO.N,Net-(U1-SIM_RST)*%
X121000000Y-102600000D03*
%TO.P,R5,2*%
%TO.N,SIMRST*%
X121000000Y-99500000D03*
%TD*%
D20*
%TO.P,U1,1,GND*%
%TO.N,GND*%
X126000000Y-78000000D03*
%TO.P,U1,2,GND*%
X126000000Y-79000000D03*
%TO.P,U1,3,GND*%
X126000000Y-80000000D03*
%TO.P,U1,4,VBAT*%
%TO.N,+3.3V*%
X126000000Y-81000000D03*
%TO.P,U1,5*%
%TO.N,N/C*%
X126000000Y-82000000D03*
%TO.P,U1,6*%
X126000000Y-83000000D03*
%TO.P,U1,7,VDD_EXT*%
%TO.N,unconnected-(U1-VDD_EXT-Pad7)*%
X126000000Y-84000000D03*
%TO.P,U1,8,PWRKEY*%
%TO.N,POWERSW*%
X126000000Y-85000000D03*
%TO.P,U1,9,DTR*%
%TO.N,unconnected-(U1-DTR-Pad9)*%
X126000000Y-86000000D03*
%TO.P,U1,10,RI*%
%TO.N,unconnected-(U1-RI-Pad10)*%
X126000000Y-87000000D03*
%TO.P,U1,11,DCD*%
%TO.N,unconnected-(U1-DCD-Pad11)*%
X126000000Y-88000000D03*
%TO.P,U1,12,CTS*%
%TO.N,unconnected-(U1-CTS-Pad12)*%
X126000000Y-89000000D03*
%TO.P,U1,13,RTS*%
%TO.N,unconnected-(U1-RTS-Pad13)*%
X126000000Y-90000000D03*
%TO.P,U1,14,TXD*%
%TO.N,TX*%
X126000000Y-91000000D03*
%TO.P,U1,15,RXD*%
%TO.N,RX*%
X126000000Y-92000000D03*
%TO.P,U1,16,~{RESET}*%
%TO.N,unconnected-(U1-~{RESET}-Pad16)*%
X126000000Y-93000000D03*
%TO.P,U1,17,VRTC*%
%TO.N,unconnected-(U1-VRTC-Pad17)*%
X126000000Y-94000000D03*
D21*
%TO.P,U1,18,GND*%
%TO.N,GND*%
X130000000Y-98000000D03*
%TO.P,U1,19,MIC1P*%
%TO.N,MP*%
X131000000Y-98000000D03*
%TO.P,U1,20,MIC1N*%
%TO.N,MN*%
X132000000Y-98000000D03*
%TO.P,U1,21,SPK1P*%
%TO.N,SP*%
X133000000Y-98000000D03*
%TO.P,U1,22,SPK1N*%
%TO.N,SN*%
X134000000Y-98000000D03*
%TO.P,U1,23,ADC0*%
%TO.N,unconnected-(U1-ADC0-Pad23)*%
X135000000Y-98000000D03*
%TO.P,U1,24,ADC1*%
%TO.N,unconnected-(U1-ADC1-Pad24)*%
X136000000Y-98000000D03*
%TO.P,U1,25,VCHG*%
%TO.N,unconnected-(U1-VCHG-Pad25)*%
X137000000Y-98000000D03*
%TO.P,U1,26,USB_DP*%
%TO.N,unconnected-(U1-USB_DP-Pad26)*%
X138000000Y-98000000D03*
%TO.P,U1,27,USB_DN*%
%TO.N,unconnected-(U1-USB_DN-Pad27)*%
X139000000Y-98000000D03*
%TO.P,U1,28,GND*%
%TO.N,GND*%
X140000000Y-98000000D03*
%TO.P,U1,29,SIM_VDD*%
%TO.N,unconnected-(U1-SIM_VDD-Pad29)*%
X141000000Y-98000000D03*
%TO.P,U1,30,SIM_DATA*%
%TO.N,Net-(U1-SIM_DATA)*%
X142000000Y-98000000D03*
%TO.P,U1,31,SIM_CLK*%
%TO.N,Net-(U1-SIM_CLK)*%
X143000000Y-98000000D03*
%TO.P,U1,32,SIM_RST*%
%TO.N,Net-(U1-SIM_RST)*%
X144000000Y-98000000D03*
%TO.P,U1,33,SIM_DET*%
%TO.N,unconnected-(U1-SIM_DET-Pad33)*%
X145000000Y-98000000D03*
%TO.P,U1,34,GND*%
%TO.N,GND*%
X146000000Y-98000000D03*
D20*
%TO.P,U1,35,GPS_ANT*%
%TO.N,GPSANT*%
X150000000Y-94000000D03*
%TO.P,U1,36,GND*%
%TO.N,GND*%
X150000000Y-93000000D03*
%TO.P,U1,37,1PPS*%
%TO.N,unconnected-(U1-1PPS-Pad37)*%
X150000000Y-92000000D03*
%TO.P,U1,38,SDA*%
%TO.N,SDA*%
X150000000Y-91000000D03*
%TO.P,U1,39,SCL*%
%TO.N,SCL*%
X150000000Y-90000000D03*
%TO.P,U1,40,GND*%
%TO.N,GND*%
X150000000Y-89000000D03*
%TO.P,U1,41,PWM2*%
%TO.N,unconnected-(U1-PWM2-Pad41)*%
X150000000Y-88000000D03*
%TO.P,U1,42,PWM1*%
%TO.N,unconnected-(U1-PWM1-Pad42)*%
X150000000Y-87000000D03*
%TO.P,U1,43,GPIO19*%
%TO.N,unconnected-(U1-GPIO19-Pad43)*%
X150000000Y-86000000D03*
%TO.P,U1,44,GPIO17*%
%TO.N,unconnected-(U1-GPIO17-Pad44)*%
X150000000Y-85000000D03*
%TO.P,U1,45,PCM_SYNC*%
%TO.N,unconnected-(U1-PCM_SYNC-Pad45)*%
X150000000Y-84000000D03*
%TO.P,U1,46,PCM_CLK*%
%TO.N,unconnected-(U1-PCM_CLK-Pad46)*%
X150000000Y-83000000D03*
%TO.P,U1,47,PCM_IN*%
%TO.N,unconnected-(U1-PCM_IN-Pad47)*%
X150000000Y-82000000D03*
%TO.P,U1,48,PCM_OUT*%
%TO.N,unconnected-(U1-PCM_OUT-Pad48)*%
X150000000Y-81000000D03*
%TO.P,U1,49,STATUS*%
%TO.N,STA*%
X150000000Y-80000000D03*
%TO.P,U1,50,NETLIGHT*%
%TO.N,NETWORK*%
X150000000Y-79000000D03*
%TO.P,U1,51,GND*%
%TO.N,GND*%
X150000000Y-78000000D03*
D21*
%TO.P,U1,52,GND*%
X146000000Y-74000000D03*
%TO.P,U1,53,BT_ANT*%
%TO.N,unconnected-(U1-BT_ANT-Pad53)*%
X145000000Y-74000000D03*
%TO.P,U1,54,GND*%
%TO.N,GND*%
X144000000Y-74000000D03*
%TO.P,U1,55,KBR3*%
%TO.N,unconnected-(U1-KBR3-Pad55)*%
X143000000Y-74000000D03*
%TO.P,U1,56,KBR2*%
%TO.N,unconnected-(U1-KBR2-Pad56)*%
X142000000Y-74000000D03*
%TO.P,U1,57,KBR1*%
%TO.N,unconnected-(U1-KBR1-Pad57)*%
X141000000Y-74000000D03*
%TO.P,U1,58,KBR0*%
%TO.N,unconnected-(U1-KBR0-Pad58)*%
X140000000Y-74000000D03*
%TO.P,U1,59,KBC3*%
%TO.N,unconnected-(U1-KBC3-Pad59)*%
X139000000Y-74000000D03*
%TO.P,U1,60,KBC2*%
%TO.N,unconnected-(U1-KBC2-Pad60)*%
X138000000Y-74000000D03*
%TO.P,U1,61,KBC1*%
%TO.N,unconnected-(U1-KBC1-Pad61)*%
X137000000Y-74000000D03*
%TO.P,U1,62,KBC0*%
%TO.N,unconnected-(U1-KBC0-Pad62)*%
X136000000Y-74000000D03*
%TO.P,U1,63,RFSYNC*%
%TO.N,unconnected-(U1-RFSYNC-Pad63)*%
X135000000Y-74000000D03*
%TO.P,U1,64,GND*%
%TO.N,GND*%
X134000000Y-74000000D03*
%TO.P,U1,65,GND*%
X133000000Y-74000000D03*
%TO.P,U1,66,GSM_ANT*%
%TO.N,GSMANT*%
X132000000Y-74000000D03*
%TO.P,U1,67,GND*%
%TO.N,GND*%
X131000000Y-74000000D03*
%TO.P,U1,68,GND*%
X130000000Y-74000000D03*
%TD*%
D22*
%TO.P,R4,1*%
%TO.N,Net-(U1-SIM_CLK)*%
X106600000Y-87500000D03*
%TO.P,R4,2*%
%TO.N,SIMCLK*%
X103500000Y-87500000D03*
%TD*%
D23*
%TO.P,R6,1*%
%TO.N,/SW_BOOT0*%
X171950000Y-88500000D03*
%TO.P,R6,2*%
%TO.N,/BOOT0*%
X175050000Y-88500000D03*
%TD*%
D24*
%TO.P,C3,1*%
%TO.N,POWERSW*%
X106500000Y-82500000D03*
%TO.P,C3,2*%
%TO.N,GND*%
X103375000Y-82500000D03*
%TD*%
D25*
%TO.P,U3,1,GND*%
%TO.N,GND*%
X134190000Y-105000000D03*
D26*
%TO.P,U3,2,VCC_IN*%
%TO.N,+3.3V*%
X136730000Y-105000000D03*
%TO.P,U3,3,SCL*%
%TO.N,SCL*%
X139270000Y-105000000D03*
%TO.P,U3,4,SDA*%
%TO.N,SDA*%
X141810000Y-105000000D03*
D27*
%TO.P,U3,S1*%
%TO.N,N/C*%
X127000000Y-105500000D03*
%TO.P,U3,S2*%
X149000000Y-105500000D03*
%TO.P,U3,S3*%
X149000000Y-127500000D03*
%TO.P,U3,S4*%
X127000000Y-127500000D03*
%TD*%
D11*
%TO.P,AE2,1*%
%TO.N,GND*%
X157275000Y-58500000D03*
%TO.P,AE2,2*%
X162725000Y-58500000D03*
D12*
%TO.P,AE2,3*%
%TO.N,GSMANT*%
X160925000Y-60025000D03*
%TD*%
D17*
%TO.P,C1,1*%
%TO.N,+3.3V*%
X178450000Y-74500000D03*
%TO.P,C1,2*%
%TO.N,GND*%
X178450000Y-71375000D03*
%TD*%
%TO.P,C11,1*%
%TO.N,+3.3V*%
X188500000Y-80125000D03*
%TO.P,C11,2*%
%TO.N,GND*%
X188500000Y-77000000D03*
%TD*%
D28*
%TO.P,U2,1,VBAT*%
%TO.N,unconnected-(U2-VBAT-Pad1)*%
X164162500Y-80250000D03*
%TO.P,U2,2,PC13*%
%TO.N,unconnected-(U2-PC13-Pad2)*%
X164162500Y-79750000D03*
%TO.P,U2,3,PC14*%
%TO.N,unconnected-(U2-PC14-Pad3)*%
X164162500Y-79250000D03*
%TO.P,U2,4,PC15*%
%TO.N,unconnected-(U2-PC15-Pad4)*%
X164162500Y-78750000D03*
%TO.P,U2,5,PD0*%
%TO.N,unconnected-(U2-PD0-Pad5)*%
X164162500Y-78250000D03*
%TO.P,U2,6,PD1*%
%TO.N,unconnected-(U2-PD1-Pad6)*%
X164162500Y-77750000D03*
%TO.P,U2,7,NRST*%
%TO.N,unconnected-(U2-NRST-Pad7)*%
X164162500Y-77250000D03*
%TO.P,U2,8,VSSA*%
%TO.N,GND*%
X164162500Y-76750000D03*
%TO.P,U2,9,VDDA*%
%TO.N,+3.3VA*%
X164162500Y-76250000D03*
%TO.P,U2,10,PA0*%
%TO.N,unconnected-(U2-PA0-Pad10)*%
X164162500Y-75750000D03*
%TO.P,U2,11,PA1*%
%TO.N,unconnected-(U2-PA1-Pad11)*%
X164162500Y-75250000D03*
%TO.P,U2,12,PA2*%
%TO.N,RX*%
X164162500Y-74750000D03*
D29*
%TO.P,U2,13,PA3*%
%TO.N,TX*%
X162750000Y-73337500D03*
%TO.P,U2,14,PA4*%
%TO.N,unconnected-(U2-PA4-Pad14)*%
X162250000Y-73337500D03*
%TO.P,U2,15,PA5*%
%TO.N,unconnected-(U2-PA5-Pad15)*%
X161750000Y-73337500D03*
%TO.P,U2,16,PA6*%
%TO.N,unconnected-(U2-PA6-Pad16)*%
X161250000Y-73337500D03*
%TO.P,U2,17,PA7*%
%TO.N,unconnected-(U2-PA7-Pad17)*%
X160750000Y-73337500D03*
%TO.P,U2,18,PB0*%
%TO.N,unconnected-(U2-PB0-Pad18)*%
X160250000Y-73337500D03*
%TO.P,U2,19,PB1*%
%TO.N,unconnected-(U2-PB1-Pad19)*%
X159750000Y-73337500D03*
%TO.P,U2,20,PB2*%
%TO.N,unconnected-(U2-PB2-Pad20)*%
X159250000Y-73337500D03*
%TO.P,U2,21,PB10*%
%TO.N,unconnected-(U2-PB10-Pad21)*%
X158750000Y-73337500D03*
%TO.P,U2,22,PB11*%
%TO.N,unconnected-(U2-PB11-Pad22)*%
X158250000Y-73337500D03*
%TO.P,U2,23,VSS*%
%TO.N,GND*%
X157750000Y-73337500D03*
%TO.P,U2,24,VDD*%
%TO.N,+3.3V*%
X157250000Y-73337500D03*
D28*
%TO.P,U2,25,PB12*%
%TO.N,unconnected-(U2-PB12-Pad25)*%
X155837500Y-74750000D03*
%TO.P,U2,26,PB13*%
%TO.N,unconnected-(U2-PB13-Pad26)*%
X155837500Y-75250000D03*
%TO.P,U2,27,PB14*%
%TO.N,unconnected-(U2-PB14-Pad27)*%
X155837500Y-75750000D03*
%TO.P,U2,28,PB15*%
%TO.N,unconnected-(U2-PB15-Pad28)*%
X155837500Y-76250000D03*
%TO.P,U2,29,PA8*%
%TO.N,unconnected-(U2-PA8-Pad29)*%
X155837500Y-76750000D03*
%TO.P,U2,30,PA9*%
%TO.N,unconnected-(U2-PA9-Pad30)*%
X155837500Y-77250000D03*
%TO.P,U2,31,PA10*%
%TO.N,unconnected-(U2-PA10-Pad31)*%
X155837500Y-77750000D03*
%TO.P,U2,32,PA11*%
%TO.N,USB_D-*%
X155837500Y-78250000D03*
%TO.P,U2,33,PA12*%
%TO.N,USB_D+*%
X155837500Y-78750000D03*
%TO.P,U2,34,PA13*%
%TO.N,SWCLK*%
X155837500Y-79250000D03*
%TO.P,U2,35,VSS*%
%TO.N,GND*%
X155837500Y-79750000D03*
%TO.P,U2,36,VDD*%
%TO.N,+3.3V*%
X155837500Y-80250000D03*
D29*
%TO.P,U2,37,PA14*%
%TO.N,SWDIO*%
X157250000Y-81662500D03*
%TO.P,U2,38,PA15*%
%TO.N,unconnected-(U2-PA15-Pad38)*%
X157750000Y-81662500D03*
%TO.P,U2,39,PB3*%
%TO.N,unconnected-(U2-PB3-Pad39)*%
X158250000Y-81662500D03*
%TO.P,U2,40,PB4*%
%TO.N,unconnected-(U2-PB4-Pad40)*%
X158750000Y-81662500D03*
%TO.P,U2,41,PB5*%
%TO.N,unconnected-(U2-PB5-Pad41)*%
X159250000Y-81662500D03*
%TO.P,U2,42,PB6*%
%TO.N,unconnected-(U2-PB6-Pad42)*%
X159750000Y-81662500D03*
%TO.P,U2,43,PB7*%
%TO.N,unconnected-(U2-PB7-Pad43)*%
X160250000Y-81662500D03*
%TO.P,U2,44,BOOT0*%
%TO.N,/BOOT0*%
X160750000Y-81662500D03*
%TO.P,U2,45,PB8*%
%TO.N,SCL*%
X161250000Y-81662500D03*
%TO.P,U2,46,PB9*%
%TO.N,SDA*%
X161750000Y-81662500D03*
%TO.P,U2,47,VSS*%
%TO.N,GND*%
X162250000Y-81662500D03*
%TO.P,U2,48,VDD*%
%TO.N,+3.3V*%
X162750000Y-81662500D03*
%TD*%
D30*
%TO.P,C4,1*%
%TO.N,+3.3V*%
X103937500Y-73500000D03*
%TO.P,C4,2*%
%TO.N,VD*%
X107062500Y-73500000D03*
%TD*%
D23*
%TO.P,R7,1*%
%TO.N,+3.3V*%
X165500000Y-88500000D03*
%TO.P,R7,2*%
%TO.N,USB_D+*%
X168600000Y-88500000D03*
%TD*%
D17*
%TO.P,C2,1*%
%TO.N,+3.3V*%
X181800000Y-74500000D03*
%TO.P,C2,2*%
%TO.N,GND*%
X181800000Y-71375000D03*
%TD*%
D31*
%TO.P,J6,1,VBUS*%
%TO.N,VD*%
X180800000Y-97600000D03*
%TO.P,J6,2,D-*%
%TO.N,USB_D-*%
X180800000Y-96800000D03*
%TO.P,J6,3,D+*%
%TO.N,USB_D+*%
X180800000Y-96000000D03*
%TO.P,J6,4,ID*%
%TO.N,unconnected-(J6-ID-Pad4)*%
X180800000Y-95200000D03*
%TO.P,J6,5,GND*%
%TO.N,GND*%
X180800000Y-94400000D03*
D32*
%TO.P,J6,6,Shield*%
%TO.N,unconnected-(J6-Shield-Pad6)_3*%
X180900000Y-100450000D03*
%TO.N,unconnected-(J6-Shield-Pad6)_1*%
X186350000Y-100450000D03*
%TO.N,unconnected-(J6-Shield-Pad6)_2*%
X180900000Y-91550000D03*
%TO.N,unconnected-(J6-Shield-Pad6)*%
X186350000Y-91550000D03*
%TD*%
D33*
%TO.P,D1,1,K*%
%TO.N,GND*%
X188475000Y-84000000D03*
%TO.P,D1,2,A*%
%TO.N,Net-(D1-A)*%
X185500000Y-84000000D03*
%TD*%
D17*
%TO.P,C9,1*%
%TO.N,+3.3VA*%
X181800000Y-80125000D03*
%TO.P,C9,2*%
%TO.N,GND*%
X181800000Y-77000000D03*
%TD*%
D34*
%TO.P,SW1,*%
%TO.N,*%
X189100000Y-107902500D03*
X180900000Y-107902500D03*
D35*
%TO.P,SW1,1,A*%
%TO.N,GND*%
X187000000Y-107902500D03*
D36*
%TO.P,SW1,2,B*%
%TO.N,/SW_BOOT0*%
X185000000Y-107902500D03*
%TO.P,SW1,3,C*%
%TO.N,+3.3V*%
X183000000Y-107902500D03*
%TD*%
D37*
%TO.P,SW2,1,A*%
%TO.N,GND*%
X189500000Y-115700000D03*
%TO.P,SW2,2,B*%
%TO.N,POWERSW*%
X180600000Y-115700000D03*
%TD*%
D19*
%TO.P,R1,1*%
%TO.N,Net-(D1-A)*%
X158000000Y-91100000D03*
%TO.P,R1,2*%
%TO.N,NETWORK*%
X158000000Y-88000000D03*
%TD*%
D38*
%TO.P,FB1,1*%
%TO.N,+3.3VA*%
X173000000Y-78500000D03*
%TO.P,FB1,2*%
%TO.N,+3.3V*%
X167920000Y-78500000D03*
%TD*%
D33*
%TO.P,D2,1,K*%
%TO.N,GND*%
X188487500Y-87390000D03*
%TO.P,D2,2,A*%
%TO.N,Net-(D2-A)*%
X185512500Y-87390000D03*
%TD*%
D17*
%TO.P,C8,1*%
%TO.N,+3.3V*%
X178450000Y-80125000D03*
%TO.P,C8,2*%
%TO.N,GND*%
X178450000Y-77000000D03*
%TD*%
%TO.P,C6,1*%
%TO.N,+3.3V*%
X185150000Y-74500000D03*
%TO.P,C6,2*%
%TO.N,GND*%
X185150000Y-71375000D03*
%TD*%
D19*
%TO.P,R2,1*%
%TO.N,Net-(D2-A)*%
X154500000Y-91100000D03*
%TO.P,R2,2*%
%TO.N,STA*%
X154500000Y-88000000D03*
%TD*%
D39*
%TO.P,J1,1,VCC*%
%TO.N,+3.3V*%
X112540000Y-92075000D03*
%TO.P,J1,2,RST*%
%TO.N,SIMRST*%
X110000000Y-92075000D03*
%TO.P,J1,3,CLK*%
%TO.N,SIMCLK*%
X107460000Y-92075000D03*
D40*
%TO.P,J1,5,GND*%
%TO.N,GND*%
X115250000Y-97925000D03*
X104750000Y-97925000D03*
D41*
%TO.P,J1,6,VPP*%
%TO.N,unconnected-(J1-VPP-Pad6)*%
X112540000Y-103925000D03*
X110500000Y-103925000D03*
X109000000Y-103925000D03*
%TO.P,J1,7,I/O*%
%TO.N,SIMDATA*%
X107460000Y-103925000D03*
%TD*%
D42*
%TO.P,U4,1,GND*%
%TO.N,VD*%
X119320000Y-72700000D03*
D43*
%TO.P,U4,2,VO*%
%TO.N,+3.3V*%
X117040000Y-79000000D03*
D42*
%TO.P,U4,3,VI*%
%TO.N,VD*%
X114760000Y-72700000D03*
%TD*%
D30*
%TO.P,C5,1*%
%TO.N,GND*%
X103937500Y-76850000D03*
%TO.P,C5,2*%
%TO.N,VD*%
X107062500Y-76850000D03*
%TD*%
D17*
%TO.P,C7,1*%
%TO.N,+3.3V*%
X188500000Y-74500000D03*
%TO.P,C7,2*%
%TO.N,GND*%
X188500000Y-71375000D03*
%TD*%
D44*
%TO.N,GND*%
X118250000Y-99000000D03*
X173250000Y-66000000D03*
X176750000Y-75500000D03*
X126750000Y-75250000D03*
X162125000Y-76375000D03*
X188500000Y-89500000D03*
X176500000Y-73250000D03*
X132000000Y-70500000D03*
X181250000Y-93500000D03*
X121250000Y-96750000D03*
X129750000Y-75750000D03*
X175750000Y-66750000D03*
X165500000Y-130500000D03*
X152000000Y-94750000D03*
X160500000Y-69750000D03*
X157750000Y-72250000D03*
X185500000Y-93500000D03*
X171500000Y-131000000D03*
X147250000Y-95750000D03*
X133500000Y-69000000D03*
X160500000Y-75750000D03*
X161750000Y-83000000D03*
X190250000Y-90250000D03*
%TO.N,POWERSW*%
X114000000Y-85000000D03*
X139000000Y-87500000D03*
X146250000Y-91250000D03*
X143750000Y-88750000D03*
X152000000Y-93000000D03*
X116500000Y-86500000D03*
%TO.N,+3.3V*%
X166500000Y-80500000D03*
X155500000Y-81000000D03*
X159250000Y-77500000D03*
X164000000Y-82750000D03*
X164250000Y-84500000D03*
%TO.N,VD*%
X175500000Y-79500000D03*
X174500000Y-73750000D03*
X178850000Y-97600000D03*
X178500000Y-93750000D03*
%TO.N,TX*%
X134000000Y-71000000D03*
X127000000Y-70000000D03*
X146000000Y-71500000D03*
X136000000Y-72000000D03*
X129500000Y-69500000D03*
X151500000Y-72000000D03*
%TO.N,SWDIO*%
X162750000Y-86750000D03*
X159250000Y-101500000D03*
%TO.N,SWCLK*%
X162750000Y-88000000D03*
X166250000Y-108500000D03*
%TO.N,Net-(U1-SIM_DATA)*%
X124500000Y-104500000D03*
X129000000Y-100500000D03*
%TO.N,Net-(U1-SIM_CLK)*%
X113500000Y-90500000D03*
X111500000Y-90000000D03*
%TO.N,RX*%
X166000000Y-72750000D03*
X156250000Y-70750000D03*
X145750000Y-77500000D03*
X166250000Y-74250000D03*
%TO.N,SN*%
X148000000Y-83000000D03*
X148944330Y-76944330D03*
%TO.N,SDA*%
X160000000Y-79500000D03*
X153250000Y-85500000D03*
%TO.N,SCL*%
X151750000Y-87750000D03*
X159500000Y-80250000D03*
%TO.N,USB_D-*%
X163000000Y-84500000D03*
X162750000Y-79250000D03*
%TO.N,USB_D+*%
X166750000Y-82500000D03*
X167500000Y-84250000D03*
%TO.N,/SW_BOOT0*%
X184500000Y-111500000D03*
X178000000Y-95750000D03*
%TD*%
D45*
%TO.N,GSMANT*%
X134077008Y-72000000D02*
X132500000Y-72000000D01*
X159176397Y-61773603D02*
X143726397Y-61773603D01*
X138626000Y-66874000D02*
X138626000Y-67451008D01*
X132000000Y-72500000D02*
X132000000Y-74000000D01*
X143726397Y-61773603D02*
X138626000Y-66874000D01*
X132500000Y-72000000D02*
X132000000Y-72500000D01*
X160925000Y-60025000D02*
X159176397Y-61773603D01*
X138626000Y-67451008D02*
X134077008Y-72000000D01*
%TO.N,GPSANT*%
X157075000Y-101075000D02*
X150000000Y-94000000D01*
X157075000Y-127475000D02*
X157075000Y-101075000D01*
%TO.N,GND*%
X162725000Y-58500000D02*
X165750000Y-58500000D01*
D46*
X104750000Y-97925000D02*
X115250000Y-97925000D01*
D45*
X129201000Y-97201000D02*
X130000000Y-98000000D01*
X129750000Y-74250000D02*
X130000000Y-74000000D01*
X130799000Y-103549000D02*
X122074292Y-103549000D01*
X130000000Y-74000000D02*
X131000000Y-74000000D01*
X187000000Y-113200000D02*
X189500000Y-115700000D01*
X134190000Y-105000000D02*
X132250000Y-105000000D01*
X187000000Y-103750000D02*
X190250000Y-100500000D01*
D46*
X140000000Y-97250000D02*
X140000000Y-98000000D01*
D45*
X157275000Y-58500000D02*
X162725000Y-58500000D01*
X115250000Y-98873292D02*
X115250000Y-97925000D01*
X188500000Y-92152000D02*
X187152000Y-93500000D01*
X114092708Y-75349000D02*
X123349000Y-75349000D01*
X170714000Y-129016000D02*
X170714000Y-130214000D01*
X134688926Y-75251000D02*
X143749000Y-75251000D01*
D46*
X155275000Y-129000000D02*
X160725000Y-129000000D01*
D45*
X120077708Y-103701000D02*
X117188354Y-100811646D01*
X147250000Y-95750000D02*
X147250000Y-96750000D01*
X123349000Y-75349000D02*
X126651000Y-75349000D01*
X121250000Y-96750000D02*
X121701000Y-97201000D01*
X188487500Y-87390000D02*
X188487500Y-84012500D01*
X105051000Y-75736500D02*
X103937500Y-76850000D01*
X132000000Y-70500000D02*
X130000000Y-72500000D01*
X188487500Y-84012500D02*
X188475000Y-84000000D01*
X145499000Y-75251000D02*
X146000000Y-74750000D01*
X144000000Y-75000000D02*
X144000000Y-74000000D01*
X185150000Y-77000000D02*
X181800000Y-77000000D01*
X181800000Y-71375000D02*
X178450000Y-71375000D01*
X150562074Y-93000000D02*
X152000000Y-94437926D01*
X121701000Y-97201000D02*
X129201000Y-97201000D01*
D46*
X130000000Y-98000000D02*
X130000000Y-98500000D01*
D45*
X133000000Y-74000000D02*
X134000000Y-74000000D01*
X165750000Y-58500000D02*
X169750000Y-62500000D01*
X103375000Y-82500000D02*
X101799000Y-80924000D01*
X145984603Y-58500000D02*
X157275000Y-58500000D01*
X134000000Y-74000000D02*
X134000000Y-74562074D01*
X178450000Y-77000000D02*
X178450000Y-76560792D01*
X177389208Y-75500000D02*
X176750000Y-75500000D01*
X181250000Y-93950000D02*
X180800000Y-94400000D01*
X121922292Y-103701000D02*
X120077708Y-103701000D01*
X144000000Y-74000000D02*
X144000000Y-74562074D01*
X111142708Y-78299000D02*
X114092708Y-75349000D01*
X123349000Y-75349000D02*
X126000000Y-78000000D01*
X187152000Y-93500000D02*
X185500000Y-93500000D01*
X188500000Y-77000000D02*
X185150000Y-77000000D01*
X148508636Y-89000000D02*
X147250000Y-90258636D01*
X144688926Y-75251000D02*
X145499000Y-75251000D01*
D46*
X155750000Y-72250000D02*
X157750000Y-72250000D01*
X158750000Y-75750000D02*
X157750000Y-74750000D01*
D47*
X162250000Y-81662500D02*
X162250000Y-82500000D01*
D46*
X160500000Y-75750000D02*
X158750000Y-75750000D01*
D45*
X129750000Y-75750000D02*
X129750000Y-74250000D01*
X101799000Y-80924000D02*
X101799000Y-73577708D01*
D46*
X152849942Y-78000000D02*
X150000000Y-78000000D01*
D45*
X175750000Y-66750000D02*
X178450000Y-69450000D01*
X117188354Y-100811646D02*
X117188354Y-100061646D01*
X152000000Y-94437926D02*
X152000000Y-94750000D01*
X147250000Y-96750000D02*
X146000000Y-98000000D01*
D46*
X139349000Y-99151000D02*
X140000000Y-98500000D01*
D45*
X126000000Y-79000000D02*
X126000000Y-80000000D01*
X135484603Y-69000000D02*
X133500000Y-69000000D01*
X103937500Y-76850000D02*
X105386500Y-78299000D01*
X134000000Y-74562074D02*
X134688926Y-75251000D01*
X131688926Y-75251000D02*
X132499000Y-75251000D01*
X150000000Y-93000000D02*
X150562074Y-93000000D01*
X131000000Y-74562074D02*
X131688926Y-75251000D01*
X126651000Y-75349000D02*
X126750000Y-75250000D01*
X105386500Y-78299000D02*
X111142708Y-78299000D01*
X185150000Y-71375000D02*
X181800000Y-71375000D01*
D46*
X155837500Y-79750000D02*
X154599942Y-79750000D01*
D45*
X147250000Y-90258636D02*
X147250000Y-95750000D01*
X190250000Y-100500000D02*
X190250000Y-90250000D01*
X169750000Y-62500000D02*
X167750000Y-62500000D01*
X150000000Y-89000000D02*
X148508636Y-89000000D01*
X176500000Y-72000000D02*
X177125000Y-71375000D01*
X144000000Y-74562074D02*
X144688926Y-75251000D01*
X187000000Y-107902500D02*
X187000000Y-113200000D01*
X188500000Y-89500000D02*
X188500000Y-92152000D01*
D46*
X157750000Y-73337500D02*
X157750000Y-72250000D01*
D45*
X103227708Y-72149000D02*
X104647292Y-72149000D01*
X188500000Y-89500000D02*
X188500000Y-87402500D01*
D46*
X154599942Y-79750000D02*
X152849942Y-78000000D01*
D45*
X130000000Y-72500000D02*
X130000000Y-74000000D01*
X132250000Y-105000000D02*
X130799000Y-103549000D01*
D46*
X146000000Y-98000000D02*
X146000000Y-97500000D01*
D45*
X187000000Y-107902500D02*
X187000000Y-103750000D01*
X116938354Y-100311646D02*
X116688354Y-100311646D01*
X146000000Y-74750000D02*
X146000000Y-74000000D01*
D46*
X146000000Y-97500000D02*
X145349000Y-96849000D01*
D45*
X143749000Y-75251000D02*
X144000000Y-75000000D01*
X117188354Y-100061646D02*
X116938354Y-100311646D01*
X165500000Y-130500000D02*
X164000000Y-129000000D01*
X131000000Y-74000000D02*
X131000000Y-74562074D01*
D47*
X162250000Y-82500000D02*
X161750000Y-83000000D01*
D45*
X104647292Y-72149000D02*
X105051000Y-72552708D01*
X101799000Y-73577708D02*
X103227708Y-72149000D01*
X176500000Y-73250000D02*
X176500000Y-72000000D01*
X181800000Y-77000000D02*
X178450000Y-77000000D01*
X137500000Y-66984603D02*
X135484603Y-69000000D01*
X116688354Y-100311646D02*
X115250000Y-98873292D01*
X188500000Y-71375000D02*
X185150000Y-71375000D01*
X117188354Y-100811646D02*
X116688354Y-100311646D01*
X105051000Y-72552708D02*
X105051000Y-75736500D01*
D46*
X157750000Y-74750000D02*
X157750000Y-73337500D01*
D45*
X177125000Y-71375000D02*
X178450000Y-71375000D01*
X137500000Y-66984603D02*
X145984603Y-58500000D01*
D46*
X130651000Y-99151000D02*
X139349000Y-99151000D01*
D45*
X133000000Y-74750000D02*
X133000000Y-74000000D01*
X169750000Y-62500000D02*
X173250000Y-66000000D01*
X132499000Y-75251000D02*
X133000000Y-74750000D01*
X122074292Y-103549000D02*
X121922292Y-103701000D01*
X117188354Y-100061646D02*
X118250000Y-99000000D01*
X164000000Y-129000000D02*
X160725000Y-129000000D01*
X167750000Y-62500000D02*
X160500000Y-69750000D01*
X126000000Y-78000000D02*
X126000000Y-79000000D01*
X181250000Y-93500000D02*
X181250000Y-93950000D01*
D46*
X140000000Y-98500000D02*
X140000000Y-98000000D01*
D45*
X178450000Y-69450000D02*
X178450000Y-71375000D01*
D46*
X162125000Y-76375000D02*
X162000000Y-76250000D01*
X162500000Y-76750000D02*
X162125000Y-76375000D01*
D45*
X178450000Y-76560792D02*
X177389208Y-75500000D01*
X188500000Y-87402500D02*
X188487500Y-87390000D01*
D46*
X140401000Y-96849000D02*
X140000000Y-97250000D01*
X145349000Y-96849000D02*
X140401000Y-96849000D01*
D45*
X170714000Y-130214000D02*
X171500000Y-131000000D01*
D46*
X130000000Y-98500000D02*
X130651000Y-99151000D01*
X162500000Y-76750000D02*
X164162500Y-76750000D01*
X150000000Y-78000000D02*
X155750000Y-72250000D01*
D45*
%TO.N,POWERSW*%
X139000000Y-87500000D02*
X130000000Y-96500000D01*
X111500000Y-82500000D02*
X106500000Y-82500000D01*
X146250000Y-91250000D02*
X143750000Y-88750000D01*
X124000000Y-96500000D02*
X119000000Y-91500000D01*
X116500000Y-86500000D02*
X119000000Y-86500000D01*
X130000000Y-96500000D02*
X124000000Y-96500000D01*
X119000000Y-91500000D02*
X119000000Y-86500000D01*
X119000000Y-86500000D02*
X121500000Y-86500000D01*
X180600000Y-115700000D02*
X174700000Y-115700000D01*
X121500000Y-86500000D02*
X123000000Y-85000000D01*
X114000000Y-85000000D02*
X111500000Y-82500000D01*
X123000000Y-85000000D02*
X126000000Y-85000000D01*
X174700000Y-115700000D02*
X152000000Y-93000000D01*
D46*
%TO.N,+3.3V*%
X166500000Y-80500000D02*
X166500000Y-79920000D01*
D45*
X165339000Y-131851000D02*
X167345000Y-129845000D01*
X190750000Y-80000000D02*
X190750000Y-80250000D01*
X178625000Y-80125000D02*
X178750000Y-80000000D01*
X117040000Y-83960000D02*
X117040000Y-79000000D01*
X167345000Y-129845000D02*
X168174000Y-129016000D01*
X117040000Y-79000000D02*
X121000000Y-79000000D01*
X109330000Y-85250000D02*
X102750000Y-85250000D01*
D46*
X163251000Y-73750000D02*
X163251000Y-74178534D01*
D45*
X175500000Y-130250000D02*
X173750000Y-132000000D01*
D46*
X167920000Y-78500000D02*
X167920000Y-74920000D01*
X167920000Y-74920000D02*
X166500000Y-73500000D01*
X166500000Y-79920000D02*
X167920000Y-78500000D01*
X157250000Y-73337500D02*
X157250000Y-76250000D01*
D45*
X102000000Y-86000000D02*
X102000000Y-106750000D01*
X190250000Y-81250000D02*
X190500000Y-81000000D01*
D46*
X159929534Y-77500000D02*
X159250000Y-77500000D01*
D45*
X102500000Y-74937500D02*
X103937500Y-73500000D01*
X168375000Y-130375000D02*
X167845000Y-129845000D01*
D46*
X163837500Y-82750000D02*
X164000000Y-82750000D01*
D45*
X183000000Y-107902500D02*
X183000000Y-117500000D01*
X105351000Y-110101000D02*
X131629000Y-110101000D01*
D46*
X164250000Y-84500000D02*
X165500000Y-85750000D01*
D45*
X178450000Y-74500000D02*
X181800000Y-74500000D01*
D46*
X162750000Y-81662500D02*
X163837500Y-82750000D01*
D45*
X171920000Y-74500000D02*
X178450000Y-74500000D01*
X102500000Y-78000000D02*
X102500000Y-74937500D01*
X185150000Y-74500000D02*
X188500000Y-74500000D01*
X170000000Y-132000000D02*
X168375000Y-130375000D01*
X104000000Y-78500000D02*
X104500000Y-79000000D01*
X121000000Y-79000000D02*
X123000000Y-81000000D01*
X102000000Y-106750000D02*
X105351000Y-110101000D01*
X102000000Y-106750000D02*
X102000000Y-107000000D01*
X173750000Y-132000000D02*
X170000000Y-132000000D01*
X190500000Y-80250000D02*
X190125000Y-80625000D01*
X180075000Y-81750000D02*
X186875000Y-81750000D01*
X190750000Y-80000000D02*
X190500000Y-80250000D01*
X190125000Y-80625000D02*
X189625000Y-80125000D01*
X102750000Y-85250000D02*
X102000000Y-86000000D01*
X190750000Y-76750000D02*
X190750000Y-80000000D01*
X123000000Y-81000000D02*
X126000000Y-81000000D01*
X131629000Y-110101000D02*
X136730000Y-105000000D01*
X175500000Y-125000000D02*
X175500000Y-130250000D01*
X111915000Y-87835000D02*
X112540000Y-88460000D01*
X154249000Y-122519000D02*
X154249000Y-131351000D01*
X103000000Y-78500000D02*
X104000000Y-78500000D01*
X167845000Y-129845000D02*
X167345000Y-129845000D01*
D46*
X166500000Y-73500000D02*
X163500000Y-73500000D01*
D45*
X154249000Y-131351000D02*
X154749000Y-131851000D01*
X189250000Y-89500000D02*
X190250000Y-88500000D01*
X183000000Y-107902500D02*
X183000000Y-106750000D01*
D46*
X163500000Y-73500000D02*
X163500000Y-73501000D01*
X155500000Y-80587500D02*
X155500000Y-81000000D01*
D45*
X112080000Y-88000000D02*
X113000000Y-88000000D01*
X188500000Y-74500000D02*
X190750000Y-76750000D01*
X190750000Y-80750000D02*
X190500000Y-81000000D01*
D46*
X163251000Y-74178534D02*
X159929534Y-77500000D01*
X158500000Y-77500000D02*
X159250000Y-77500000D01*
D45*
X190250000Y-88500000D02*
X190250000Y-81250000D01*
X186875000Y-81750000D02*
X188500000Y-80125000D01*
D46*
X155837500Y-80250000D02*
X155500000Y-80587500D01*
D45*
X112540000Y-92075000D02*
X112540000Y-88460000D01*
X113000000Y-88000000D02*
X117040000Y-83960000D01*
X178450000Y-80125000D02*
X178625000Y-80125000D01*
X190500000Y-81000000D02*
X190125000Y-80625000D01*
X189625000Y-80125000D02*
X188500000Y-80125000D01*
X111915000Y-87835000D02*
X112080000Y-88000000D01*
X167920000Y-78500000D02*
X171920000Y-74500000D01*
X190750000Y-80250000D02*
X190750000Y-80750000D01*
X117040000Y-79000000D02*
X104500000Y-79000000D01*
X183000000Y-106750000D02*
X189250000Y-100500000D01*
X102500000Y-78000000D02*
X103000000Y-78500000D01*
X183000000Y-117500000D02*
X175500000Y-125000000D01*
X136730000Y-105000000D02*
X154249000Y-122519000D01*
D46*
X163500000Y-73501000D02*
X163251000Y-73750000D01*
D45*
X190750000Y-80250000D02*
X190500000Y-80250000D01*
D46*
X157250000Y-76250000D02*
X158500000Y-77500000D01*
D45*
X178450000Y-80125000D02*
X180075000Y-81750000D01*
D46*
X165500000Y-85750000D02*
X165500000Y-88500000D01*
D45*
X112540000Y-88460000D02*
X113000000Y-88000000D01*
X181800000Y-74500000D02*
X185150000Y-74500000D01*
X189250000Y-100500000D02*
X189250000Y-89500000D01*
X154749000Y-131851000D02*
X165339000Y-131851000D01*
X111915000Y-87835000D02*
X109330000Y-85250000D01*
D48*
%TO.N,VD*%
X118515397Y-64984603D02*
X114760000Y-68740000D01*
D45*
X107062500Y-73500000D02*
X107062500Y-76850000D01*
X112700000Y-72700000D02*
X112500000Y-72500000D01*
X114760000Y-72700000D02*
X112700000Y-72700000D01*
X177500000Y-87935344D02*
X177500000Y-92500000D01*
X122726397Y-61773603D02*
X121500000Y-63000000D01*
X137500000Y-64984603D02*
X146984603Y-55500000D01*
X146984603Y-55500000D02*
X164250000Y-55500000D01*
X112500000Y-72500000D02*
X111500000Y-72500000D01*
X137500000Y-64984603D02*
X137500000Y-65000000D01*
X111500000Y-72500000D02*
X112000000Y-72500000D01*
D48*
X121107660Y-64984603D02*
X118515397Y-64984603D01*
D45*
X178500000Y-93500000D02*
X178500000Y-93750000D01*
X109000000Y-73500000D02*
X110000000Y-72500000D01*
X107062500Y-73500000D02*
X109000000Y-73500000D01*
X121500000Y-64592263D02*
X121107660Y-64984603D01*
X137500000Y-65000000D02*
X134273603Y-61773603D01*
X110000000Y-72500000D02*
X111500000Y-72500000D01*
X164250000Y-55500000D02*
X174500000Y-65750000D01*
X175500000Y-79500000D02*
X175500000Y-85935344D01*
X134273603Y-61773603D02*
X122726397Y-61773603D01*
D48*
X114760000Y-68740000D02*
X114760000Y-72700000D01*
D45*
X121500000Y-63000000D02*
X121500000Y-64592263D01*
X174500000Y-65750000D02*
X174500000Y-73750000D01*
D46*
X180800000Y-97600000D02*
X178850000Y-97600000D01*
D45*
X177500000Y-92500000D02*
X178500000Y-93500000D01*
X175500000Y-85935344D02*
X177500000Y-87935344D01*
X119320000Y-72700000D02*
X114760000Y-72700000D01*
%TO.N,Net-(D1-A)*%
X158000000Y-93000000D02*
X158000000Y-91100000D01*
X181352000Y-102750000D02*
X167750000Y-102750000D01*
X182499000Y-87001000D02*
X182499000Y-101603000D01*
X167750000Y-102750000D02*
X158000000Y-93000000D01*
X185500000Y-84000000D02*
X182499000Y-87001000D01*
X182499000Y-101603000D02*
X181352000Y-102750000D01*
%TO.N,Net-(D2-A)*%
X184750000Y-103000000D02*
X184000000Y-103750000D01*
X184750000Y-88152500D02*
X184750000Y-103000000D01*
X184000000Y-103750000D02*
X167150000Y-103750000D01*
X185512500Y-87390000D02*
X184750000Y-88152500D01*
X167150000Y-103750000D02*
X154500000Y-91100000D01*
%TO.N,SIMRST*%
X110000000Y-93189968D02*
X112655016Y-95844984D01*
X112655016Y-95844984D02*
X116344984Y-95844984D01*
X120000000Y-99500000D02*
X121000000Y-99500000D01*
X110000000Y-92075000D02*
X110000000Y-93189968D01*
X116344984Y-95844984D02*
X120000000Y-99500000D01*
%TO.N,SIMCLK*%
X103500000Y-87500000D02*
X103500000Y-89500000D01*
X106075000Y-92075000D02*
X107460000Y-92075000D01*
X103500000Y-89500000D02*
X106075000Y-92075000D01*
D46*
%TO.N,TX*%
X127000000Y-69000000D02*
X127331529Y-68668471D01*
X136500000Y-71500000D02*
X136000000Y-72000000D01*
X162750000Y-72250000D02*
X162000000Y-71500000D01*
D45*
X128000000Y-69336943D02*
X128000000Y-90000000D01*
D46*
X134000000Y-71000000D02*
X132500000Y-69500000D01*
D45*
X123647660Y-64984603D02*
X127331529Y-68668471D01*
X127331529Y-68668471D02*
X128000000Y-69336943D01*
D46*
X132500000Y-69500000D02*
X129500000Y-69500000D01*
X127000000Y-70000000D02*
X127000000Y-69000000D01*
X146000000Y-71500000D02*
X136500000Y-71500000D01*
X162750000Y-73337500D02*
X162750000Y-72250000D01*
D45*
X128000000Y-90000000D02*
X127000000Y-91000000D01*
D46*
X162000000Y-71500000D02*
X152000000Y-71500000D01*
X152000000Y-71500000D02*
X151500000Y-72000000D01*
D45*
X127000000Y-91000000D02*
X126000000Y-91000000D01*
%TO.N,MN*%
X132000000Y-96700000D02*
X132000000Y-98000000D01*
X147452000Y-81248000D02*
X132000000Y-96700000D01*
X147452000Y-66788943D02*
X147452000Y-81248000D01*
X145647660Y-64984603D02*
X147452000Y-66788943D01*
%TO.N,MP*%
X143107660Y-64984603D02*
X146751000Y-68627943D01*
X131000000Y-96700000D02*
X131000000Y-98000000D01*
X146751000Y-80949000D02*
X131000000Y-96700000D01*
X146751000Y-68627943D02*
X146751000Y-80949000D01*
D46*
%TO.N,SWDIO*%
X157250000Y-82541480D02*
X158104260Y-83395740D01*
D45*
X159250000Y-103250000D02*
X159250000Y-101500000D01*
D46*
X162500000Y-86500000D02*
X162750000Y-86750000D01*
X157250000Y-81662500D02*
X157250000Y-82541480D01*
X161250000Y-86500000D02*
X162500000Y-86500000D01*
D45*
X168174000Y-126476000D02*
X168174000Y-112174000D01*
D46*
X158104260Y-83395740D02*
X158145740Y-83395740D01*
X158145740Y-83395740D02*
X161250000Y-86500000D01*
D45*
X168174000Y-112174000D02*
X159250000Y-103250000D01*
D46*
%TO.N,SWCLK*%
X157250000Y-79750000D02*
X157250000Y-80320466D01*
D45*
X170714000Y-112964000D02*
X166250000Y-108500000D01*
D46*
X162000000Y-87000000D02*
X162250000Y-87250000D01*
X161000000Y-87000000D02*
X162000000Y-87000000D01*
X162250000Y-87500000D02*
X162750000Y-88000000D01*
X162250000Y-87250000D02*
X162250000Y-87500000D01*
X156750000Y-79250000D02*
X157250000Y-79750000D01*
X155837500Y-79250000D02*
X156750000Y-79250000D01*
X156250000Y-82250000D02*
X161000000Y-87000000D01*
X157250000Y-80320466D02*
X156250000Y-81320466D01*
X156250000Y-81320466D02*
X156250000Y-82250000D01*
D45*
X170714000Y-126476000D02*
X170714000Y-112964000D01*
%TO.N,NETWORK*%
X155500000Y-85500000D02*
X155500000Y-84000000D01*
X158000000Y-88000000D02*
X155500000Y-85500000D01*
X153500000Y-79500000D02*
X153000000Y-79000000D01*
X153500000Y-82000000D02*
X153500000Y-79500000D01*
X153000000Y-79000000D02*
X150000000Y-79000000D01*
X155500000Y-84000000D02*
X153500000Y-82000000D01*
%TO.N,STA*%
X154500000Y-88000000D02*
X154500000Y-84500000D01*
X152500000Y-80500000D02*
X152000000Y-80000000D01*
X152000000Y-80000000D02*
X150000000Y-80000000D01*
X154500000Y-84500000D02*
X152500000Y-82500000D01*
X152500000Y-82500000D02*
X152500000Y-80500000D01*
%TO.N,Net-(U1-SIM_DATA)*%
X142000000Y-99300000D02*
X142000000Y-98000000D01*
X121000000Y-105900000D02*
X123100000Y-105900000D01*
X129000000Y-100500000D02*
X140800000Y-100500000D01*
X140800000Y-100500000D02*
X142000000Y-99300000D01*
X124500000Y-104500000D02*
X123100000Y-105900000D01*
%TO.N,SIMDATA*%
X107460000Y-103925000D02*
X107460000Y-104975000D01*
X107460000Y-104975000D02*
X111485000Y-109000000D01*
X111485000Y-109000000D02*
X121000000Y-109000000D01*
%TO.N,Net-(U1-SIM_CLK)*%
X106600000Y-87500000D02*
X109000000Y-87500000D01*
X124000000Y-100476708D02*
X124000000Y-101000000D01*
X109000000Y-87500000D02*
X111500000Y-90000000D01*
X113500000Y-91500000D02*
X120000000Y-98000000D01*
X124000000Y-101000000D02*
X124500000Y-101500000D01*
X143000000Y-99300000D02*
X143000000Y-98000000D01*
X140800000Y-101500000D02*
X143000000Y-99300000D01*
X113500000Y-90500000D02*
X113500000Y-91500000D01*
X120000000Y-98000000D02*
X121523292Y-98000000D01*
X124500000Y-101500000D02*
X140800000Y-101500000D01*
X121523292Y-98000000D02*
X124000000Y-100476708D01*
%TO.N,Net-(U1-SIM_RST)*%
X140700000Y-102600000D02*
X144000000Y-99300000D01*
X121000000Y-102600000D02*
X140700000Y-102600000D01*
X144000000Y-99300000D02*
X144000000Y-98000000D01*
D46*
%TO.N,RX*%
X166000000Y-72750000D02*
X163750000Y-70500000D01*
D45*
X129024500Y-77225500D02*
X129000000Y-77250000D01*
X129600500Y-77350500D02*
X129100500Y-77350500D01*
D46*
X158250000Y-70500000D02*
X158000000Y-70750000D01*
D45*
X128701000Y-77250000D02*
X129000000Y-77250000D01*
X129475500Y-77225500D02*
X129024500Y-77225500D01*
X128701000Y-67497943D02*
X128701000Y-77250000D01*
X129000000Y-77250000D02*
X129100500Y-77350500D01*
X156250000Y-70750000D02*
X158000000Y-70750000D01*
X127300000Y-92000000D02*
X126000000Y-92000000D01*
X129600500Y-77350500D02*
X130201000Y-76750000D01*
D46*
X163750000Y-70500000D02*
X158500000Y-70500000D01*
D45*
X128701000Y-78250000D02*
X128701000Y-90599000D01*
D46*
X158500000Y-70500000D02*
X158250000Y-70500000D01*
D45*
X128701000Y-77250000D02*
X128701000Y-78250000D01*
X145000000Y-76750000D02*
X145750000Y-77500000D01*
D46*
X165750000Y-74750000D02*
X166250000Y-74250000D01*
D45*
X126187660Y-64984603D02*
X128701000Y-67497943D01*
X129100500Y-77850500D02*
X129350500Y-77600500D01*
X128701000Y-90599000D02*
X127300000Y-92000000D01*
X129600500Y-77350500D02*
X129475500Y-77225500D01*
X129100500Y-77350500D02*
X129100500Y-77850500D01*
X129000000Y-77250000D02*
X129350500Y-77600500D01*
D46*
X164162500Y-74750000D02*
X165750000Y-74750000D01*
D45*
X129350500Y-77600500D02*
X129600500Y-77350500D01*
X130201000Y-76750000D02*
X145000000Y-76750000D01*
X128701000Y-78250000D02*
X129100500Y-77850500D01*
%TO.N,SN*%
X150727660Y-64984603D02*
X150727660Y-75161000D01*
X148944330Y-76944330D02*
X148888660Y-77000000D01*
X150727660Y-75161000D02*
X148944330Y-76944330D01*
X148000000Y-83000000D02*
X134000000Y-97000000D01*
X134000000Y-97000000D02*
X134000000Y-98000000D01*
D46*
%TO.N,SDA*%
X161750000Y-81662500D02*
X161750000Y-80500000D01*
D45*
X149437926Y-91000000D02*
X150000000Y-91000000D01*
X141991364Y-105000000D02*
X148701000Y-98290364D01*
X150000000Y-91000000D02*
X150750000Y-91000000D01*
D46*
X161750000Y-80500000D02*
X161250000Y-80000000D01*
D45*
X148701000Y-91736926D02*
X149437926Y-91000000D01*
X152500000Y-86250000D02*
X153250000Y-85500000D01*
D46*
X161250000Y-80000000D02*
X160750000Y-79500000D01*
D45*
X148701000Y-98290364D02*
X148701000Y-91736926D01*
X150750000Y-91000000D02*
X152500000Y-89250000D01*
X141810000Y-105000000D02*
X141991364Y-105000000D01*
D46*
X160750000Y-79500000D02*
X160000000Y-79500000D01*
D45*
X152500000Y-89250000D02*
X152500000Y-86250000D01*
%TO.N,SP*%
X148187660Y-81503704D02*
X133000000Y-96691364D01*
X133000000Y-96691364D02*
X133000000Y-98000000D01*
X148187660Y-64984603D02*
X148187660Y-81503704D01*
%TO.N,SCL*%
X151750000Y-88812074D02*
X151750000Y-87750000D01*
X150000000Y-90000000D02*
X150562074Y-90000000D01*
X140475000Y-103795000D02*
X142205000Y-103795000D01*
D46*
X161250000Y-81662500D02*
X161250000Y-80750000D01*
D45*
X142205000Y-103795000D02*
X148000000Y-98000000D01*
X148500000Y-90000000D02*
X150000000Y-90000000D01*
X139270000Y-105000000D02*
X139000000Y-105000000D01*
X148000000Y-90500000D02*
X148500000Y-90000000D01*
X148000000Y-98000000D02*
X148000000Y-90500000D01*
D46*
X160750000Y-80250000D02*
X159500000Y-80250000D01*
D45*
X150562074Y-90000000D02*
X151750000Y-88812074D01*
D46*
X161250000Y-80750000D02*
X160750000Y-80250000D01*
D45*
X139270000Y-105000000D02*
X140475000Y-103795000D01*
D46*
%TO.N,+3.3VA*%
X165250000Y-76250000D02*
X165500000Y-76500000D01*
X165500000Y-80500000D02*
X166500000Y-81500000D01*
X173000000Y-79750000D02*
X173000000Y-78500000D01*
X166500000Y-81500000D02*
X171250000Y-81500000D01*
D45*
X180175000Y-78500000D02*
X181800000Y-80125000D01*
D46*
X164162500Y-76250000D02*
X165250000Y-76250000D01*
D45*
X173000000Y-78500000D02*
X180175000Y-78500000D01*
D46*
X171250000Y-81500000D02*
X173000000Y-79750000D01*
X165500000Y-76500000D02*
X165500000Y-80500000D01*
D45*
X181800000Y-80125000D02*
X185150000Y-80125000D01*
D46*
%TO.N,USB_D-*%
X162500000Y-79250000D02*
X162750000Y-79250000D01*
X164499000Y-89380870D02*
X172368130Y-97250000D01*
X161500000Y-78250000D02*
X162500000Y-79250000D01*
X172368130Y-97250000D02*
X176250000Y-97250000D01*
X164499000Y-85999000D02*
X164499000Y-89380870D01*
X176700000Y-96800000D02*
X180800000Y-96800000D01*
X163000000Y-84500000D02*
X164499000Y-85999000D01*
X155837500Y-78250000D02*
X161500000Y-78250000D01*
X176250000Y-97250000D02*
X176700000Y-96800000D01*
D45*
%TO.N,unconnected-(J1-VPP-Pad6)*%
X109000000Y-103925000D02*
X110500000Y-103925000D01*
X110500000Y-103925000D02*
X112540000Y-103925000D01*
%TO.N,USB_D+*%
X176151000Y-92703000D02*
X176151000Y-87577708D01*
D46*
X165000000Y-82500000D02*
X166750000Y-82500000D01*
D45*
X180800000Y-96000000D02*
X179448000Y-96000000D01*
D46*
X155837500Y-78750000D02*
X161250000Y-78750000D01*
D45*
X179448000Y-96000000D02*
X176151000Y-92703000D01*
X168600000Y-88500000D02*
X168600000Y-85350000D01*
X168600000Y-85350000D02*
X167500000Y-84250000D01*
D46*
X155837500Y-78750000D02*
X154958520Y-78750000D01*
D45*
X176151000Y-87577708D02*
X171073292Y-82500000D01*
X171073292Y-82500000D02*
X166750000Y-82500000D01*
D46*
X161250000Y-78750000D02*
X165000000Y-82500000D01*
D47*
%TO.N,/BOOT0*%
X167748943Y-83649000D02*
X167251057Y-83649000D01*
X170300000Y-83750000D02*
X167849943Y-83750000D01*
X167150057Y-83750000D02*
X161250000Y-83750000D01*
X161250000Y-83750000D02*
X160750000Y-83250000D01*
X160750000Y-83250000D02*
X160750000Y-81662500D01*
X167251057Y-83649000D02*
X167150057Y-83750000D01*
X167849943Y-83750000D02*
X167748943Y-83649000D01*
X175050000Y-88500000D02*
X170300000Y-83750000D01*
D45*
%TO.N,/SW_BOOT0*%
X171950000Y-88500000D02*
X171950000Y-88950000D01*
X184500000Y-111500000D02*
X185500000Y-110500000D01*
X171950000Y-89700000D02*
X178000000Y-95750000D01*
X171950000Y-88500000D02*
X171950000Y-89700000D01*
X185500000Y-110500000D02*
X185500000Y-109500000D01*
X185000000Y-109000000D02*
X185000000Y-107902500D01*
X185500000Y-109500000D02*
X185000000Y-109000000D01*
%TD*%
M02*
