%TF.GenerationSoftware,KiCad,Pcbnew,9.0.7*%
%TF.CreationDate,2026-01-26T12:56:13+01:00*%
%TF.ProjectId,PTPseminarLNv2,50545073-656d-4696-9e61-724c4e76322e,rev?*%
%TF.SameCoordinates,Original*%
%TF.FileFunction,Paste,Top*%
%TF.FilePolarity,Positive*%
%FSLAX46Y46*%
G04 Gerber Fmt 4.6, Leading zero omitted, Abs format (unit mm)*
G04 Created by KiCad (PCBNEW 9.0.7) date 2026-01-26 12:56:13*
%MOMM*%
%LPD*%
G01*
G04 APERTURE LIST*
G04 Aperture macros list*
%AMRoundRect*
0 Rectangle with rounded corners*
0 $1 Rounding radius*
0 $2 $3 $4 $5 $6 $7 $8 $9 X,Y pos of 4 corners*
0 Add a 4 corners polygon primitive as box body*
4,1,4,$2,$3,$4,$5,$6,$7,$8,$9,$2,$3,0*
0 Add four circle primitives for the rounded corners*
1,1,$1+$1,$2,$3*
1,1,$1+$1,$4,$5*
1,1,$1+$1,$6,$7*
1,1,$1+$1,$8,$9*
0 Add four rect primitives between the rounded corners*
20,1,$1+$1,$2,$3,$4,$5,0*
20,1,$1+$1,$4,$5,$6,$7,0*
20,1,$1+$1,$6,$7,$8,$9,0*
20,1,$1+$1,$8,$9,$2,$3,0*%
G04 Aperture macros list end*
%ADD10R,1.150000X3.800000*%
%ADD11R,1.350000X0.750000*%
%ADD12RoundRect,0.250000X0.650000X-0.412500X0.650000X0.412500X-0.650000X0.412500X-0.650000X-0.412500X0*%
%ADD13RoundRect,0.250000X-0.625000X0.400000X-0.625000X-0.400000X0.625000X-0.400000X0.625000X0.400000X0*%
%ADD14RoundRect,0.250000X0.625000X-0.400000X0.625000X0.400000X-0.625000X0.400000X-0.625000X-0.400000X0*%
%ADD15O,1.600000X0.600000*%
%ADD16O,0.600000X1.600000*%
%ADD17RoundRect,0.250000X0.400000X0.625000X-0.400000X0.625000X-0.400000X-0.625000X0.400000X-0.625000X0*%
%ADD18RoundRect,0.250000X-0.400000X-0.625000X0.400000X-0.625000X0.400000X0.625000X-0.400000X0.625000X0*%
%ADD19RoundRect,0.250000X0.412500X0.650000X-0.412500X0.650000X-0.412500X-0.650000X0.412500X-0.650000X0*%
%ADD20RoundRect,0.075000X0.662500X0.075000X-0.662500X0.075000X-0.662500X-0.075000X0.662500X-0.075000X0*%
%ADD21RoundRect,0.075000X0.075000X0.662500X-0.075000X0.662500X-0.075000X-0.662500X0.075000X-0.662500X0*%
%ADD22RoundRect,0.250000X-0.412500X-0.650000X0.412500X-0.650000X0.412500X0.650000X-0.412500X0.650000X0*%
%ADD23R,2.000000X0.500000*%
%ADD24R,1.700000X2.000000*%
%ADD25RoundRect,0.250001X0.462499X0.624999X-0.462499X0.624999X-0.462499X-0.624999X0.462499X-0.624999X0*%
%ADD26RoundRect,0.250000X0.500000X0.300000X-0.500000X0.300000X-0.500000X-0.300000X0.500000X-0.300000X0*%
%ADD27R,1.000000X1.100000*%
%ADD28R,1.000000X2.200000*%
%ADD29R,0.850000X1.100000*%
%ADD30RoundRect,0.250000X-1.125000X1.275000X-1.125000X-1.275000X1.125000X-1.275000X1.125000X1.275000X0*%
%ADD31RoundRect,0.250000X-0.350000X0.850000X-0.350000X-0.850000X0.350000X-0.850000X0.350000X0.850000X0*%
G04 APERTURE END LIST*
D10*
%TO.C,AE1*%
X160725000Y-129000000D03*
X155275000Y-129000000D03*
D11*
X157075000Y-127475000D03*
%TD*%
D12*
%TO.C,C10*%
X185150000Y-80125000D03*
X185150000Y-77000000D03*
%TD*%
D13*
%TO.C,R3*%
X121000000Y-105900000D03*
X121000000Y-109000000D03*
%TD*%
D14*
%TO.C,R5*%
X121000000Y-102600000D03*
X121000000Y-99500000D03*
%TD*%
D15*
%TO.C,U1*%
X126000000Y-78000000D03*
X126000000Y-79000000D03*
X126000000Y-80000000D03*
X126000000Y-81000000D03*
X126000000Y-82000000D03*
X126000000Y-83000000D03*
X126000000Y-84000000D03*
X126000000Y-85000000D03*
X126000000Y-86000000D03*
X126000000Y-87000000D03*
X126000000Y-88000000D03*
X126000000Y-89000000D03*
X126000000Y-90000000D03*
X126000000Y-91000000D03*
X126000000Y-92000000D03*
X126000000Y-93000000D03*
X126000000Y-94000000D03*
D16*
X130000000Y-98000000D03*
X131000000Y-98000000D03*
X132000000Y-98000000D03*
X133000000Y-98000000D03*
X134000000Y-98000000D03*
X135000000Y-98000000D03*
X136000000Y-98000000D03*
X137000000Y-98000000D03*
X138000000Y-98000000D03*
X139000000Y-98000000D03*
X140000000Y-98000000D03*
X141000000Y-98000000D03*
X142000000Y-98000000D03*
X143000000Y-98000000D03*
X144000000Y-98000000D03*
X145000000Y-98000000D03*
X146000000Y-98000000D03*
D15*
X150000000Y-94000000D03*
X150000000Y-93000000D03*
X150000000Y-92000000D03*
X150000000Y-91000000D03*
X150000000Y-90000000D03*
X150000000Y-89000000D03*
X150000000Y-88000000D03*
X150000000Y-87000000D03*
X150000000Y-86000000D03*
X150000000Y-85000000D03*
X150000000Y-84000000D03*
X150000000Y-83000000D03*
X150000000Y-82000000D03*
X150000000Y-81000000D03*
X150000000Y-80000000D03*
X150000000Y-79000000D03*
X150000000Y-78000000D03*
D16*
X146000000Y-74000000D03*
X145000000Y-74000000D03*
X144000000Y-74000000D03*
X143000000Y-74000000D03*
X142000000Y-74000000D03*
X141000000Y-74000000D03*
X140000000Y-74000000D03*
X139000000Y-74000000D03*
X138000000Y-74000000D03*
X137000000Y-74000000D03*
X136000000Y-74000000D03*
X135000000Y-74000000D03*
X134000000Y-74000000D03*
X133000000Y-74000000D03*
X132000000Y-74000000D03*
X131000000Y-74000000D03*
X130000000Y-74000000D03*
%TD*%
D17*
%TO.C,R4*%
X106600000Y-87500000D03*
X103500000Y-87500000D03*
%TD*%
D18*
%TO.C,R6*%
X171950000Y-88500000D03*
X175050000Y-88500000D03*
%TD*%
D19*
%TO.C,C3*%
X106500000Y-82500000D03*
X103375000Y-82500000D03*
%TD*%
D10*
%TO.C,AE2*%
X157275000Y-58500000D03*
X162725000Y-58500000D03*
D11*
X160925000Y-60025000D03*
%TD*%
D12*
%TO.C,C1*%
X178450000Y-74500000D03*
X178450000Y-71375000D03*
%TD*%
%TO.C,C11*%
X188500000Y-80125000D03*
X188500000Y-77000000D03*
%TD*%
D20*
%TO.C,U2*%
X164162500Y-80250000D03*
X164162500Y-79750000D03*
X164162500Y-79250000D03*
X164162500Y-78750000D03*
X164162500Y-78250000D03*
X164162500Y-77750000D03*
X164162500Y-77250000D03*
X164162500Y-76750000D03*
X164162500Y-76250000D03*
X164162500Y-75750000D03*
X164162500Y-75250000D03*
X164162500Y-74750000D03*
D21*
X162750000Y-73337500D03*
X162250000Y-73337500D03*
X161750000Y-73337500D03*
X161250000Y-73337500D03*
X160750000Y-73337500D03*
X160250000Y-73337500D03*
X159750000Y-73337500D03*
X159250000Y-73337500D03*
X158750000Y-73337500D03*
X158250000Y-73337500D03*
X157750000Y-73337500D03*
X157250000Y-73337500D03*
D20*
X155837500Y-74750000D03*
X155837500Y-75250000D03*
X155837500Y-75750000D03*
X155837500Y-76250000D03*
X155837500Y-76750000D03*
X155837500Y-77250000D03*
X155837500Y-77750000D03*
X155837500Y-78250000D03*
X155837500Y-78750000D03*
X155837500Y-79250000D03*
X155837500Y-79750000D03*
X155837500Y-80250000D03*
D21*
X157250000Y-81662500D03*
X157750000Y-81662500D03*
X158250000Y-81662500D03*
X158750000Y-81662500D03*
X159250000Y-81662500D03*
X159750000Y-81662500D03*
X160250000Y-81662500D03*
X160750000Y-81662500D03*
X161250000Y-81662500D03*
X161750000Y-81662500D03*
X162250000Y-81662500D03*
X162750000Y-81662500D03*
%TD*%
D22*
%TO.C,C4*%
X103937500Y-73500000D03*
X107062500Y-73500000D03*
%TD*%
D18*
%TO.C,R7*%
X165500000Y-88500000D03*
X168600000Y-88500000D03*
%TD*%
D12*
%TO.C,C2*%
X181800000Y-74500000D03*
X181800000Y-71375000D03*
%TD*%
D23*
%TO.C,J6*%
X180800000Y-97600000D03*
X180800000Y-96800000D03*
X180800000Y-96000000D03*
X180800000Y-95200000D03*
X180800000Y-94400000D03*
D24*
X180900000Y-100450000D03*
X186350000Y-100450000D03*
X180900000Y-91550000D03*
X186350000Y-91550000D03*
%TD*%
D25*
%TO.C,D1*%
X188475000Y-84000000D03*
X185500000Y-84000000D03*
%TD*%
D12*
%TO.C,C9*%
X181800000Y-80125000D03*
X181800000Y-77000000D03*
%TD*%
D26*
%TO.C,SW2*%
X189500000Y-115700000D03*
X180600000Y-115700000D03*
%TD*%
D14*
%TO.C,R1*%
X158000000Y-91100000D03*
X158000000Y-88000000D03*
%TD*%
D25*
%TO.C,D2*%
X188487500Y-87390000D03*
X185512500Y-87390000D03*
%TD*%
D12*
%TO.C,C8*%
X178450000Y-80125000D03*
X178450000Y-77000000D03*
%TD*%
%TO.C,C6*%
X185150000Y-74500000D03*
X185150000Y-71375000D03*
%TD*%
D14*
%TO.C,R2*%
X154500000Y-91100000D03*
X154500000Y-88000000D03*
%TD*%
D27*
%TO.C,J1*%
X112540000Y-92075000D03*
X110000000Y-92075000D03*
X107460000Y-92075000D03*
D28*
X115250000Y-97925000D03*
X104750000Y-97925000D03*
D29*
X112540000Y-103925000D03*
X110500000Y-103925000D03*
X109000000Y-103925000D03*
X107460000Y-103925000D03*
%TD*%
D30*
%TO.C,U4*%
X118565000Y-77325000D03*
X115515000Y-77325000D03*
X118565000Y-80675000D03*
X115515000Y-80675000D03*
D31*
X119320000Y-72700000D03*
X114760000Y-72700000D03*
%TD*%
D22*
%TO.C,C5*%
X103937500Y-76850000D03*
X107062500Y-76850000D03*
%TD*%
D12*
%TO.C,C7*%
X188500000Y-74500000D03*
X188500000Y-71375000D03*
%TD*%
M02*
