%TF.GenerationSoftware,KiCad,Pcbnew,9.0.7*%
%TF.CreationDate,2026-01-26T12:56:13+01:00*%
%TF.ProjectId,PTPseminarLNv2,50545073-656d-4696-9e61-724c4e76322e,rev?*%
%TF.SameCoordinates,Original*%
%TF.FileFunction,Legend,Top*%
%TF.FilePolarity,Positive*%
%FSLAX46Y46*%
G04 Gerber Fmt 4.6, Leading zero omitted, Abs format (unit mm)*
G04 Created by KiCad (PCBNEW 9.0.7) date 2026-01-26 12:56:13*
%MOMM*%
%LPD*%
G01*
G04 APERTURE LIST*
G04 Aperture macros list*
%AMRoundRect*
0 Rectangle with rounded corners*
0 $1 Rounding radius*
0 $2 $3 $4 $5 $6 $7 $8 $9 X,Y pos of 4 corners*
0 Add a 4 corners polygon primitive as box body*
4,1,4,$2,$3,$4,$5,$6,$7,$8,$9,$2,$3,0*
0 Add four circle primitives for the rounded corners*
1,1,$1+$1,$2,$3*
1,1,$1+$1,$4,$5*
1,1,$1+$1,$6,$7*
1,1,$1+$1,$8,$9*
0 Add four rect primitives between the rounded corners*
20,1,$1+$1,$2,$3,$4,$5,0*
20,1,$1+$1,$4,$5,$6,$7,0*
20,1,$1+$1,$6,$7,$8,$9,0*
20,1,$1+$1,$8,$9,$2,$3,0*%
G04 Aperture macros list end*
%ADD10C,0.120000*%
%ADD11C,0.150000*%
%ADD12C,0.203200*%
%ADD13C,0.200000*%
%ADD14C,0.400000*%
%ADD15C,0.127000*%
%ADD16C,0.250000*%
%ADD17C,2.083600*%
%ADD18RoundRect,0.102000X0.575000X1.900000X-0.575000X1.900000X-0.575000X-1.900000X0.575000X-1.900000X0*%
%ADD19RoundRect,0.102000X0.675000X0.375000X-0.675000X0.375000X-0.675000X-0.375000X0.675000X-0.375000X0*%
%ADD20R,1.350000X1.350000*%
%ADD21C,1.350000*%
%ADD22C,1.100000*%
%ADD23R,1.730000X2.030000*%
%ADD24O,1.730000X2.030000*%
%ADD25RoundRect,0.250000X0.650000X-0.412500X0.650000X0.412500X-0.650000X0.412500X-0.650000X-0.412500X0*%
%ADD26RoundRect,0.250000X-0.625000X0.400000X-0.625000X-0.400000X0.625000X-0.400000X0.625000X0.400000X0*%
%ADD27RoundRect,0.250000X0.625000X-0.400000X0.625000X0.400000X-0.625000X0.400000X-0.625000X-0.400000X0*%
%ADD28O,1.804000X0.804000*%
%ADD29O,0.804000X1.804000*%
%ADD30RoundRect,0.250000X0.400000X0.625000X-0.400000X0.625000X-0.400000X-0.625000X0.400000X-0.625000X0*%
%ADD31RoundRect,0.250000X-0.400000X-0.625000X0.400000X-0.625000X0.400000X0.625000X-0.400000X0.625000X0*%
%ADD32RoundRect,0.250000X0.412500X0.650000X-0.412500X0.650000X-0.412500X-0.650000X0.412500X-0.650000X0*%
%ADD33RoundRect,0.102000X-0.754000X-0.754000X0.754000X-0.754000X0.754000X0.754000X-0.754000X0.754000X0*%
%ADD34C,1.712000*%
%ADD35C,3.204000*%
%ADD36RoundRect,0.102000X-0.575000X-1.900000X0.575000X-1.900000X0.575000X1.900000X-0.575000X1.900000X0*%
%ADD37RoundRect,0.102000X-0.675000X-0.375000X0.675000X-0.375000X0.675000X0.375000X-0.675000X0.375000X0*%
%ADD38C,6.000000*%
%ADD39RoundRect,0.075000X0.662500X0.075000X-0.662500X0.075000X-0.662500X-0.075000X0.662500X-0.075000X0*%
%ADD40RoundRect,0.075000X0.075000X0.662500X-0.075000X0.662500X-0.075000X-0.662500X0.075000X-0.662500X0*%
%ADD41RoundRect,0.250000X-0.412500X-0.650000X0.412500X-0.650000X0.412500X0.650000X-0.412500X0.650000X0*%
%ADD42C,1.000000*%
%ADD43R,2.000000X0.500000*%
%ADD44R,1.700000X2.000000*%
%ADD45RoundRect,0.250001X0.462499X0.624999X-0.462499X0.624999X-0.462499X-0.624999X0.462499X-0.624999X0*%
%ADD46O,2.200000X3.500000*%
%ADD47R,1.500000X2.500000*%
%ADD48O,1.500000X2.500000*%
%ADD49RoundRect,0.250000X0.500000X0.300000X-0.500000X0.300000X-0.500000X-0.300000X0.500000X-0.300000X0*%
%ADD50C,2.000000*%
%ADD51RoundRect,0.102000X0.500000X0.550000X-0.500000X0.550000X-0.500000X-0.550000X0.500000X-0.550000X0*%
%ADD52RoundRect,0.102000X0.500000X1.100000X-0.500000X1.100000X-0.500000X-1.100000X0.500000X-1.100000X0*%
%ADD53RoundRect,0.102000X0.425000X0.550000X-0.425000X0.550000X-0.425000X-0.550000X0.425000X-0.550000X0*%
%ADD54RoundRect,0.250000X-0.350000X0.850000X-0.350000X-0.850000X0.350000X-0.850000X0.350000X0.850000X0*%
%ADD55RoundRect,0.249997X-2.650003X2.950003X-2.650003X-2.950003X2.650003X-2.950003X2.650003X2.950003X0*%
G04 APERTURE END LIST*
D10*
X162489817Y-131405999D02*
X162832674Y-131405999D01*
X162832674Y-131405999D02*
X162901245Y-131428856D01*
X162901245Y-131428856D02*
X162946960Y-131474570D01*
X162946960Y-131474570D02*
X162969817Y-131543142D01*
X162969817Y-131543142D02*
X162969817Y-131588856D01*
X162489817Y-130948856D02*
X162489817Y-131177428D01*
X162489817Y-131177428D02*
X162718388Y-131200285D01*
X162718388Y-131200285D02*
X162695531Y-131177428D01*
X162695531Y-131177428D02*
X162672674Y-131131714D01*
X162672674Y-131131714D02*
X162672674Y-131017428D01*
X162672674Y-131017428D02*
X162695531Y-130971714D01*
X162695531Y-130971714D02*
X162718388Y-130948856D01*
X162718388Y-130948856D02*
X162764102Y-130925999D01*
X162764102Y-130925999D02*
X162878388Y-130925999D01*
X162878388Y-130925999D02*
X162924102Y-130948856D01*
X162924102Y-130948856D02*
X162946960Y-130971714D01*
X162946960Y-130971714D02*
X162969817Y-131017428D01*
X162969817Y-131017428D02*
X162969817Y-131131714D01*
X162969817Y-131131714D02*
X162946960Y-131177428D01*
X162946960Y-131177428D02*
X162924102Y-131200285D01*
D11*
X156833333Y-132304104D02*
X157309523Y-132304104D01*
X156738095Y-132589819D02*
X157071428Y-131589819D01*
X157071428Y-131589819D02*
X157404761Y-132589819D01*
X157738095Y-132066009D02*
X158071428Y-132066009D01*
X158214285Y-132589819D02*
X157738095Y-132589819D01*
X157738095Y-132589819D02*
X157738095Y-131589819D01*
X157738095Y-131589819D02*
X158214285Y-131589819D01*
X159166666Y-132589819D02*
X158595238Y-132589819D01*
X158880952Y-132589819D02*
X158880952Y-131589819D01*
X158880952Y-131589819D02*
X158785714Y-131732676D01*
X158785714Y-131732676D02*
X158690476Y-131827914D01*
X158690476Y-131827914D02*
X158595238Y-131875533D01*
X137166666Y-62329422D02*
X137166666Y-63043707D01*
X137166666Y-63043707D02*
X137119047Y-63186564D01*
X137119047Y-63186564D02*
X137023809Y-63281803D01*
X137023809Y-63281803D02*
X136880952Y-63329422D01*
X136880952Y-63329422D02*
X136785714Y-63329422D01*
X137595238Y-62424660D02*
X137642857Y-62377041D01*
X137642857Y-62377041D02*
X137738095Y-62329422D01*
X137738095Y-62329422D02*
X137976190Y-62329422D01*
X137976190Y-62329422D02*
X138071428Y-62377041D01*
X138071428Y-62377041D02*
X138119047Y-62424660D01*
X138119047Y-62424660D02*
X138166666Y-62519898D01*
X138166666Y-62519898D02*
X138166666Y-62615136D01*
X138166666Y-62615136D02*
X138119047Y-62757993D01*
X138119047Y-62757993D02*
X137547619Y-63329422D01*
X137547619Y-63329422D02*
X138166666Y-63329422D01*
X146774326Y-60204819D02*
X146774326Y-60919104D01*
X146774326Y-60919104D02*
X146726707Y-61061961D01*
X146726707Y-61061961D02*
X146631469Y-61157200D01*
X146631469Y-61157200D02*
X146488612Y-61204819D01*
X146488612Y-61204819D02*
X146393374Y-61204819D01*
X147679088Y-60538152D02*
X147679088Y-61204819D01*
X147440993Y-60157200D02*
X147202898Y-60871485D01*
X147202898Y-60871485D02*
X147821945Y-60871485D01*
X183859580Y-79205357D02*
X183907200Y-79252976D01*
X183907200Y-79252976D02*
X183954819Y-79395833D01*
X183954819Y-79395833D02*
X183954819Y-79491071D01*
X183954819Y-79491071D02*
X183907200Y-79633928D01*
X183907200Y-79633928D02*
X183811961Y-79729166D01*
X183811961Y-79729166D02*
X183716723Y-79776785D01*
X183716723Y-79776785D02*
X183526247Y-79824404D01*
X183526247Y-79824404D02*
X183383390Y-79824404D01*
X183383390Y-79824404D02*
X183192914Y-79776785D01*
X183192914Y-79776785D02*
X183097676Y-79729166D01*
X183097676Y-79729166D02*
X183002438Y-79633928D01*
X183002438Y-79633928D02*
X182954819Y-79491071D01*
X182954819Y-79491071D02*
X182954819Y-79395833D01*
X182954819Y-79395833D02*
X183002438Y-79252976D01*
X183002438Y-79252976D02*
X183050057Y-79205357D01*
X183954819Y-78252976D02*
X183954819Y-78824404D01*
X183954819Y-78538690D02*
X182954819Y-78538690D01*
X182954819Y-78538690D02*
X183097676Y-78633928D01*
X183097676Y-78633928D02*
X183192914Y-78729166D01*
X183192914Y-78729166D02*
X183240533Y-78824404D01*
X182954819Y-77633928D02*
X182954819Y-77538690D01*
X182954819Y-77538690D02*
X183002438Y-77443452D01*
X183002438Y-77443452D02*
X183050057Y-77395833D01*
X183050057Y-77395833D02*
X183145295Y-77348214D01*
X183145295Y-77348214D02*
X183335771Y-77300595D01*
X183335771Y-77300595D02*
X183573866Y-77300595D01*
X183573866Y-77300595D02*
X183764342Y-77348214D01*
X183764342Y-77348214D02*
X183859580Y-77395833D01*
X183859580Y-77395833D02*
X183907200Y-77443452D01*
X183907200Y-77443452D02*
X183954819Y-77538690D01*
X183954819Y-77538690D02*
X183954819Y-77633928D01*
X183954819Y-77633928D02*
X183907200Y-77729166D01*
X183907200Y-77729166D02*
X183859580Y-77776785D01*
X183859580Y-77776785D02*
X183764342Y-77824404D01*
X183764342Y-77824404D02*
X183573866Y-77872023D01*
X183573866Y-77872023D02*
X183335771Y-77872023D01*
X183335771Y-77872023D02*
X183145295Y-77824404D01*
X183145295Y-77824404D02*
X183050057Y-77776785D01*
X183050057Y-77776785D02*
X183002438Y-77729166D01*
X183002438Y-77729166D02*
X182954819Y-77633928D01*
X123284819Y-107616666D02*
X122808628Y-107949999D01*
X123284819Y-108188094D02*
X122284819Y-108188094D01*
X122284819Y-108188094D02*
X122284819Y-107807142D01*
X122284819Y-107807142D02*
X122332438Y-107711904D01*
X122332438Y-107711904D02*
X122380057Y-107664285D01*
X122380057Y-107664285D02*
X122475295Y-107616666D01*
X122475295Y-107616666D02*
X122618152Y-107616666D01*
X122618152Y-107616666D02*
X122713390Y-107664285D01*
X122713390Y-107664285D02*
X122761009Y-107711904D01*
X122761009Y-107711904D02*
X122808628Y-107807142D01*
X122808628Y-107807142D02*
X122808628Y-108188094D01*
X122284819Y-107283332D02*
X122284819Y-106664285D01*
X122284819Y-106664285D02*
X122665771Y-106997618D01*
X122665771Y-106997618D02*
X122665771Y-106854761D01*
X122665771Y-106854761D02*
X122713390Y-106759523D01*
X122713390Y-106759523D02*
X122761009Y-106711904D01*
X122761009Y-106711904D02*
X122856247Y-106664285D01*
X122856247Y-106664285D02*
X123094342Y-106664285D01*
X123094342Y-106664285D02*
X123189580Y-106711904D01*
X123189580Y-106711904D02*
X123237200Y-106759523D01*
X123237200Y-106759523D02*
X123284819Y-106854761D01*
X123284819Y-106854761D02*
X123284819Y-107140475D01*
X123284819Y-107140475D02*
X123237200Y-107235713D01*
X123237200Y-107235713D02*
X123189580Y-107283332D01*
X124666666Y-59954819D02*
X124666666Y-60669104D01*
X124666666Y-60669104D02*
X124619047Y-60811961D01*
X124619047Y-60811961D02*
X124523809Y-60907200D01*
X124523809Y-60907200D02*
X124380952Y-60954819D01*
X124380952Y-60954819D02*
X124285714Y-60954819D01*
X125047619Y-59954819D02*
X125666666Y-59954819D01*
X125666666Y-59954819D02*
X125333333Y-60335771D01*
X125333333Y-60335771D02*
X125476190Y-60335771D01*
X125476190Y-60335771D02*
X125571428Y-60383390D01*
X125571428Y-60383390D02*
X125619047Y-60431009D01*
X125619047Y-60431009D02*
X125666666Y-60526247D01*
X125666666Y-60526247D02*
X125666666Y-60764342D01*
X125666666Y-60764342D02*
X125619047Y-60859580D01*
X125619047Y-60859580D02*
X125571428Y-60907200D01*
X125571428Y-60907200D02*
X125476190Y-60954819D01*
X125476190Y-60954819D02*
X125190476Y-60954819D01*
X125190476Y-60954819D02*
X125095238Y-60907200D01*
X125095238Y-60907200D02*
X125047619Y-60859580D01*
X119624819Y-101216666D02*
X119148628Y-101549999D01*
X119624819Y-101788094D02*
X118624819Y-101788094D01*
X118624819Y-101788094D02*
X118624819Y-101407142D01*
X118624819Y-101407142D02*
X118672438Y-101311904D01*
X118672438Y-101311904D02*
X118720057Y-101264285D01*
X118720057Y-101264285D02*
X118815295Y-101216666D01*
X118815295Y-101216666D02*
X118958152Y-101216666D01*
X118958152Y-101216666D02*
X119053390Y-101264285D01*
X119053390Y-101264285D02*
X119101009Y-101311904D01*
X119101009Y-101311904D02*
X119148628Y-101407142D01*
X119148628Y-101407142D02*
X119148628Y-101788094D01*
X118624819Y-100311904D02*
X118624819Y-100788094D01*
X118624819Y-100788094D02*
X119101009Y-100835713D01*
X119101009Y-100835713D02*
X119053390Y-100788094D01*
X119053390Y-100788094D02*
X119005771Y-100692856D01*
X119005771Y-100692856D02*
X119005771Y-100454761D01*
X119005771Y-100454761D02*
X119053390Y-100359523D01*
X119053390Y-100359523D02*
X119101009Y-100311904D01*
X119101009Y-100311904D02*
X119196247Y-100264285D01*
X119196247Y-100264285D02*
X119434342Y-100264285D01*
X119434342Y-100264285D02*
X119529580Y-100311904D01*
X119529580Y-100311904D02*
X119577200Y-100359523D01*
X119577200Y-100359523D02*
X119624819Y-100454761D01*
X119624819Y-100454761D02*
X119624819Y-100692856D01*
X119624819Y-100692856D02*
X119577200Y-100788094D01*
X119577200Y-100788094D02*
X119529580Y-100835713D01*
X129378333Y-70350866D02*
X129378333Y-71484200D01*
X129378333Y-71484200D02*
X129445000Y-71617533D01*
X129445000Y-71617533D02*
X129511666Y-71684200D01*
X129511666Y-71684200D02*
X129645000Y-71750866D01*
X129645000Y-71750866D02*
X129911666Y-71750866D01*
X129911666Y-71750866D02*
X130045000Y-71684200D01*
X130045000Y-71684200D02*
X130111666Y-71617533D01*
X130111666Y-71617533D02*
X130178333Y-71484200D01*
X130178333Y-71484200D02*
X130178333Y-70350866D01*
X131578333Y-71750866D02*
X130778333Y-71750866D01*
X131178333Y-71750866D02*
X131178333Y-70350866D01*
X131178333Y-70350866D02*
X131045000Y-70550866D01*
X131045000Y-70550866D02*
X130911667Y-70684200D01*
X130911667Y-70684200D02*
X130778333Y-70750866D01*
X104883333Y-89784819D02*
X104550000Y-89308628D01*
X104311905Y-89784819D02*
X104311905Y-88784819D01*
X104311905Y-88784819D02*
X104692857Y-88784819D01*
X104692857Y-88784819D02*
X104788095Y-88832438D01*
X104788095Y-88832438D02*
X104835714Y-88880057D01*
X104835714Y-88880057D02*
X104883333Y-88975295D01*
X104883333Y-88975295D02*
X104883333Y-89118152D01*
X104883333Y-89118152D02*
X104835714Y-89213390D01*
X104835714Y-89213390D02*
X104788095Y-89261009D01*
X104788095Y-89261009D02*
X104692857Y-89308628D01*
X104692857Y-89308628D02*
X104311905Y-89308628D01*
X105740476Y-89118152D02*
X105740476Y-89784819D01*
X105502381Y-88737200D02*
X105264286Y-89451485D01*
X105264286Y-89451485D02*
X105883333Y-89451485D01*
X173333333Y-87124819D02*
X173000000Y-86648628D01*
X172761905Y-87124819D02*
X172761905Y-86124819D01*
X172761905Y-86124819D02*
X173142857Y-86124819D01*
X173142857Y-86124819D02*
X173238095Y-86172438D01*
X173238095Y-86172438D02*
X173285714Y-86220057D01*
X173285714Y-86220057D02*
X173333333Y-86315295D01*
X173333333Y-86315295D02*
X173333333Y-86458152D01*
X173333333Y-86458152D02*
X173285714Y-86553390D01*
X173285714Y-86553390D02*
X173238095Y-86601009D01*
X173238095Y-86601009D02*
X173142857Y-86648628D01*
X173142857Y-86648628D02*
X172761905Y-86648628D01*
X174190476Y-86124819D02*
X174000000Y-86124819D01*
X174000000Y-86124819D02*
X173904762Y-86172438D01*
X173904762Y-86172438D02*
X173857143Y-86220057D01*
X173857143Y-86220057D02*
X173761905Y-86362914D01*
X173761905Y-86362914D02*
X173714286Y-86553390D01*
X173714286Y-86553390D02*
X173714286Y-86934342D01*
X173714286Y-86934342D02*
X173761905Y-87029580D01*
X173761905Y-87029580D02*
X173809524Y-87077200D01*
X173809524Y-87077200D02*
X173904762Y-87124819D01*
X173904762Y-87124819D02*
X174095238Y-87124819D01*
X174095238Y-87124819D02*
X174190476Y-87077200D01*
X174190476Y-87077200D02*
X174238095Y-87029580D01*
X174238095Y-87029580D02*
X174285714Y-86934342D01*
X174285714Y-86934342D02*
X174285714Y-86696247D01*
X174285714Y-86696247D02*
X174238095Y-86601009D01*
X174238095Y-86601009D02*
X174190476Y-86553390D01*
X174190476Y-86553390D02*
X174095238Y-86505771D01*
X174095238Y-86505771D02*
X173904762Y-86505771D01*
X173904762Y-86505771D02*
X173809524Y-86553390D01*
X173809524Y-86553390D02*
X173761905Y-86601009D01*
X173761905Y-86601009D02*
X173714286Y-86696247D01*
X104770833Y-80859580D02*
X104723214Y-80907200D01*
X104723214Y-80907200D02*
X104580357Y-80954819D01*
X104580357Y-80954819D02*
X104485119Y-80954819D01*
X104485119Y-80954819D02*
X104342262Y-80907200D01*
X104342262Y-80907200D02*
X104247024Y-80811961D01*
X104247024Y-80811961D02*
X104199405Y-80716723D01*
X104199405Y-80716723D02*
X104151786Y-80526247D01*
X104151786Y-80526247D02*
X104151786Y-80383390D01*
X104151786Y-80383390D02*
X104199405Y-80192914D01*
X104199405Y-80192914D02*
X104247024Y-80097676D01*
X104247024Y-80097676D02*
X104342262Y-80002438D01*
X104342262Y-80002438D02*
X104485119Y-79954819D01*
X104485119Y-79954819D02*
X104580357Y-79954819D01*
X104580357Y-79954819D02*
X104723214Y-80002438D01*
X104723214Y-80002438D02*
X104770833Y-80050057D01*
X105104167Y-79954819D02*
X105723214Y-79954819D01*
X105723214Y-79954819D02*
X105389881Y-80335771D01*
X105389881Y-80335771D02*
X105532738Y-80335771D01*
X105532738Y-80335771D02*
X105627976Y-80383390D01*
X105627976Y-80383390D02*
X105675595Y-80431009D01*
X105675595Y-80431009D02*
X105723214Y-80526247D01*
X105723214Y-80526247D02*
X105723214Y-80764342D01*
X105723214Y-80764342D02*
X105675595Y-80859580D01*
X105675595Y-80859580D02*
X105627976Y-80907200D01*
X105627976Y-80907200D02*
X105532738Y-80954819D01*
X105532738Y-80954819D02*
X105247024Y-80954819D01*
X105247024Y-80954819D02*
X105151786Y-80907200D01*
X105151786Y-80907200D02*
X105104167Y-80859580D01*
X146738095Y-101984819D02*
X146738095Y-102794342D01*
X146738095Y-102794342D02*
X146785714Y-102889580D01*
X146785714Y-102889580D02*
X146833333Y-102937200D01*
X146833333Y-102937200D02*
X146928571Y-102984819D01*
X146928571Y-102984819D02*
X147119047Y-102984819D01*
X147119047Y-102984819D02*
X147214285Y-102937200D01*
X147214285Y-102937200D02*
X147261904Y-102889580D01*
X147261904Y-102889580D02*
X147309523Y-102794342D01*
X147309523Y-102794342D02*
X147309523Y-101984819D01*
X147690476Y-101984819D02*
X148309523Y-101984819D01*
X148309523Y-101984819D02*
X147976190Y-102365771D01*
X147976190Y-102365771D02*
X148119047Y-102365771D01*
X148119047Y-102365771D02*
X148214285Y-102413390D01*
X148214285Y-102413390D02*
X148261904Y-102461009D01*
X148261904Y-102461009D02*
X148309523Y-102556247D01*
X148309523Y-102556247D02*
X148309523Y-102794342D01*
X148309523Y-102794342D02*
X148261904Y-102889580D01*
X148261904Y-102889580D02*
X148214285Y-102937200D01*
X148214285Y-102937200D02*
X148119047Y-102984819D01*
X148119047Y-102984819D02*
X147833333Y-102984819D01*
X147833333Y-102984819D02*
X147738095Y-102937200D01*
X147738095Y-102937200D02*
X147690476Y-102889580D01*
X158833333Y-55534104D02*
X159309523Y-55534104D01*
X158738095Y-55819819D02*
X159071428Y-54819819D01*
X159071428Y-54819819D02*
X159404761Y-55819819D01*
X159738095Y-55296009D02*
X160071428Y-55296009D01*
X160214285Y-55819819D02*
X159738095Y-55819819D01*
X159738095Y-55819819D02*
X159738095Y-54819819D01*
X159738095Y-54819819D02*
X160214285Y-54819819D01*
X160595238Y-54915057D02*
X160642857Y-54867438D01*
X160642857Y-54867438D02*
X160738095Y-54819819D01*
X160738095Y-54819819D02*
X160976190Y-54819819D01*
X160976190Y-54819819D02*
X161071428Y-54867438D01*
X161071428Y-54867438D02*
X161119047Y-54915057D01*
X161119047Y-54915057D02*
X161166666Y-55010295D01*
X161166666Y-55010295D02*
X161166666Y-55105533D01*
X161166666Y-55105533D02*
X161119047Y-55248390D01*
X161119047Y-55248390D02*
X160547619Y-55819819D01*
X160547619Y-55819819D02*
X161166666Y-55819819D01*
X176959580Y-73104166D02*
X177007200Y-73151785D01*
X177007200Y-73151785D02*
X177054819Y-73294642D01*
X177054819Y-73294642D02*
X177054819Y-73389880D01*
X177054819Y-73389880D02*
X177007200Y-73532737D01*
X177007200Y-73532737D02*
X176911961Y-73627975D01*
X176911961Y-73627975D02*
X176816723Y-73675594D01*
X176816723Y-73675594D02*
X176626247Y-73723213D01*
X176626247Y-73723213D02*
X176483390Y-73723213D01*
X176483390Y-73723213D02*
X176292914Y-73675594D01*
X176292914Y-73675594D02*
X176197676Y-73627975D01*
X176197676Y-73627975D02*
X176102438Y-73532737D01*
X176102438Y-73532737D02*
X176054819Y-73389880D01*
X176054819Y-73389880D02*
X176054819Y-73294642D01*
X176054819Y-73294642D02*
X176102438Y-73151785D01*
X176102438Y-73151785D02*
X176150057Y-73104166D01*
X177054819Y-72151785D02*
X177054819Y-72723213D01*
X177054819Y-72437499D02*
X176054819Y-72437499D01*
X176054819Y-72437499D02*
X176197676Y-72532737D01*
X176197676Y-72532737D02*
X176292914Y-72627975D01*
X176292914Y-72627975D02*
X176340533Y-72723213D01*
X187109580Y-79205357D02*
X187157200Y-79252976D01*
X187157200Y-79252976D02*
X187204819Y-79395833D01*
X187204819Y-79395833D02*
X187204819Y-79491071D01*
X187204819Y-79491071D02*
X187157200Y-79633928D01*
X187157200Y-79633928D02*
X187061961Y-79729166D01*
X187061961Y-79729166D02*
X186966723Y-79776785D01*
X186966723Y-79776785D02*
X186776247Y-79824404D01*
X186776247Y-79824404D02*
X186633390Y-79824404D01*
X186633390Y-79824404D02*
X186442914Y-79776785D01*
X186442914Y-79776785D02*
X186347676Y-79729166D01*
X186347676Y-79729166D02*
X186252438Y-79633928D01*
X186252438Y-79633928D02*
X186204819Y-79491071D01*
X186204819Y-79491071D02*
X186204819Y-79395833D01*
X186204819Y-79395833D02*
X186252438Y-79252976D01*
X186252438Y-79252976D02*
X186300057Y-79205357D01*
X187204819Y-78252976D02*
X187204819Y-78824404D01*
X187204819Y-78538690D02*
X186204819Y-78538690D01*
X186204819Y-78538690D02*
X186347676Y-78633928D01*
X186347676Y-78633928D02*
X186442914Y-78729166D01*
X186442914Y-78729166D02*
X186490533Y-78824404D01*
X187204819Y-77300595D02*
X187204819Y-77872023D01*
X187204819Y-77586309D02*
X186204819Y-77586309D01*
X186204819Y-77586309D02*
X186347676Y-77681547D01*
X186347676Y-77681547D02*
X186442914Y-77776785D01*
X186442914Y-77776785D02*
X186490533Y-77872023D01*
X183738095Y-66204819D02*
X183738095Y-65204819D01*
X183738095Y-65681009D02*
X184309523Y-65681009D01*
X184309523Y-66204819D02*
X184309523Y-65204819D01*
X184738095Y-65300057D02*
X184785714Y-65252438D01*
X184785714Y-65252438D02*
X184880952Y-65204819D01*
X184880952Y-65204819D02*
X185119047Y-65204819D01*
X185119047Y-65204819D02*
X185214285Y-65252438D01*
X185214285Y-65252438D02*
X185261904Y-65300057D01*
X185261904Y-65300057D02*
X185309523Y-65395295D01*
X185309523Y-65395295D02*
X185309523Y-65490533D01*
X185309523Y-65490533D02*
X185261904Y-65633390D01*
X185261904Y-65633390D02*
X184690476Y-66204819D01*
X184690476Y-66204819D02*
X185309523Y-66204819D01*
X159238095Y-82804819D02*
X159238095Y-83614342D01*
X159238095Y-83614342D02*
X159285714Y-83709580D01*
X159285714Y-83709580D02*
X159333333Y-83757200D01*
X159333333Y-83757200D02*
X159428571Y-83804819D01*
X159428571Y-83804819D02*
X159619047Y-83804819D01*
X159619047Y-83804819D02*
X159714285Y-83757200D01*
X159714285Y-83757200D02*
X159761904Y-83709580D01*
X159761904Y-83709580D02*
X159809523Y-83614342D01*
X159809523Y-83614342D02*
X159809523Y-82804819D01*
X160238095Y-82900057D02*
X160285714Y-82852438D01*
X160285714Y-82852438D02*
X160380952Y-82804819D01*
X160380952Y-82804819D02*
X160619047Y-82804819D01*
X160619047Y-82804819D02*
X160714285Y-82852438D01*
X160714285Y-82852438D02*
X160761904Y-82900057D01*
X160761904Y-82900057D02*
X160809523Y-82995295D01*
X160809523Y-82995295D02*
X160809523Y-83090533D01*
X160809523Y-83090533D02*
X160761904Y-83233390D01*
X160761904Y-83233390D02*
X160190476Y-83804819D01*
X160190476Y-83804819D02*
X160809523Y-83804819D01*
X105333333Y-72009580D02*
X105285714Y-72057200D01*
X105285714Y-72057200D02*
X105142857Y-72104819D01*
X105142857Y-72104819D02*
X105047619Y-72104819D01*
X105047619Y-72104819D02*
X104904762Y-72057200D01*
X104904762Y-72057200D02*
X104809524Y-71961961D01*
X104809524Y-71961961D02*
X104761905Y-71866723D01*
X104761905Y-71866723D02*
X104714286Y-71676247D01*
X104714286Y-71676247D02*
X104714286Y-71533390D01*
X104714286Y-71533390D02*
X104761905Y-71342914D01*
X104761905Y-71342914D02*
X104809524Y-71247676D01*
X104809524Y-71247676D02*
X104904762Y-71152438D01*
X104904762Y-71152438D02*
X105047619Y-71104819D01*
X105047619Y-71104819D02*
X105142857Y-71104819D01*
X105142857Y-71104819D02*
X105285714Y-71152438D01*
X105285714Y-71152438D02*
X105333333Y-71200057D01*
X106190476Y-71438152D02*
X106190476Y-72104819D01*
X105952381Y-71057200D02*
X105714286Y-71771485D01*
X105714286Y-71771485D02*
X106333333Y-71771485D01*
X166883333Y-87124819D02*
X166550000Y-86648628D01*
X166311905Y-87124819D02*
X166311905Y-86124819D01*
X166311905Y-86124819D02*
X166692857Y-86124819D01*
X166692857Y-86124819D02*
X166788095Y-86172438D01*
X166788095Y-86172438D02*
X166835714Y-86220057D01*
X166835714Y-86220057D02*
X166883333Y-86315295D01*
X166883333Y-86315295D02*
X166883333Y-86458152D01*
X166883333Y-86458152D02*
X166835714Y-86553390D01*
X166835714Y-86553390D02*
X166788095Y-86601009D01*
X166788095Y-86601009D02*
X166692857Y-86648628D01*
X166692857Y-86648628D02*
X166311905Y-86648628D01*
X167216667Y-86124819D02*
X167883333Y-86124819D01*
X167883333Y-86124819D02*
X167454762Y-87124819D01*
X180609580Y-73104166D02*
X180657200Y-73151785D01*
X180657200Y-73151785D02*
X180704819Y-73294642D01*
X180704819Y-73294642D02*
X180704819Y-73389880D01*
X180704819Y-73389880D02*
X180657200Y-73532737D01*
X180657200Y-73532737D02*
X180561961Y-73627975D01*
X180561961Y-73627975D02*
X180466723Y-73675594D01*
X180466723Y-73675594D02*
X180276247Y-73723213D01*
X180276247Y-73723213D02*
X180133390Y-73723213D01*
X180133390Y-73723213D02*
X179942914Y-73675594D01*
X179942914Y-73675594D02*
X179847676Y-73627975D01*
X179847676Y-73627975D02*
X179752438Y-73532737D01*
X179752438Y-73532737D02*
X179704819Y-73389880D01*
X179704819Y-73389880D02*
X179704819Y-73294642D01*
X179704819Y-73294642D02*
X179752438Y-73151785D01*
X179752438Y-73151785D02*
X179800057Y-73104166D01*
X179800057Y-72723213D02*
X179752438Y-72675594D01*
X179752438Y-72675594D02*
X179704819Y-72580356D01*
X179704819Y-72580356D02*
X179704819Y-72342261D01*
X179704819Y-72342261D02*
X179752438Y-72247023D01*
X179752438Y-72247023D02*
X179800057Y-72199404D01*
X179800057Y-72199404D02*
X179895295Y-72151785D01*
X179895295Y-72151785D02*
X179990533Y-72151785D01*
X179990533Y-72151785D02*
X180133390Y-72199404D01*
X180133390Y-72199404D02*
X180704819Y-72770832D01*
X180704819Y-72770832D02*
X180704819Y-72151785D01*
X107488095Y-66704819D02*
X107488095Y-65704819D01*
X107488095Y-66181009D02*
X108059523Y-66181009D01*
X108059523Y-66704819D02*
X108059523Y-65704819D01*
X109059523Y-66704819D02*
X108488095Y-66704819D01*
X108773809Y-66704819D02*
X108773809Y-65704819D01*
X108773809Y-65704819D02*
X108678571Y-65847676D01*
X108678571Y-65847676D02*
X108583333Y-65942914D01*
X108583333Y-65942914D02*
X108488095Y-65990533D01*
X177954819Y-96333333D02*
X178669104Y-96333333D01*
X178669104Y-96333333D02*
X178811961Y-96380952D01*
X178811961Y-96380952D02*
X178907200Y-96476190D01*
X178907200Y-96476190D02*
X178954819Y-96619047D01*
X178954819Y-96619047D02*
X178954819Y-96714285D01*
X177954819Y-95428571D02*
X177954819Y-95619047D01*
X177954819Y-95619047D02*
X178002438Y-95714285D01*
X178002438Y-95714285D02*
X178050057Y-95761904D01*
X178050057Y-95761904D02*
X178192914Y-95857142D01*
X178192914Y-95857142D02*
X178383390Y-95904761D01*
X178383390Y-95904761D02*
X178764342Y-95904761D01*
X178764342Y-95904761D02*
X178859580Y-95857142D01*
X178859580Y-95857142D02*
X178907200Y-95809523D01*
X178907200Y-95809523D02*
X178954819Y-95714285D01*
X178954819Y-95714285D02*
X178954819Y-95523809D01*
X178954819Y-95523809D02*
X178907200Y-95428571D01*
X178907200Y-95428571D02*
X178859580Y-95380952D01*
X178859580Y-95380952D02*
X178764342Y-95333333D01*
X178764342Y-95333333D02*
X178526247Y-95333333D01*
X178526247Y-95333333D02*
X178431009Y-95380952D01*
X178431009Y-95380952D02*
X178383390Y-95428571D01*
X178383390Y-95428571D02*
X178335771Y-95523809D01*
X178335771Y-95523809D02*
X178335771Y-95714285D01*
X178335771Y-95714285D02*
X178383390Y-95809523D01*
X178383390Y-95809523D02*
X178431009Y-95857142D01*
X178431009Y-95857142D02*
X178526247Y-95904761D01*
X186249405Y-86284819D02*
X186249405Y-85284819D01*
X186249405Y-85284819D02*
X186487500Y-85284819D01*
X186487500Y-85284819D02*
X186630357Y-85332438D01*
X186630357Y-85332438D02*
X186725595Y-85427676D01*
X186725595Y-85427676D02*
X186773214Y-85522914D01*
X186773214Y-85522914D02*
X186820833Y-85713390D01*
X186820833Y-85713390D02*
X186820833Y-85856247D01*
X186820833Y-85856247D02*
X186773214Y-86046723D01*
X186773214Y-86046723D02*
X186725595Y-86141961D01*
X186725595Y-86141961D02*
X186630357Y-86237200D01*
X186630357Y-86237200D02*
X186487500Y-86284819D01*
X186487500Y-86284819D02*
X186249405Y-86284819D01*
X187773214Y-86284819D02*
X187201786Y-86284819D01*
X187487500Y-86284819D02*
X187487500Y-85284819D01*
X187487500Y-85284819D02*
X187392262Y-85427676D01*
X187392262Y-85427676D02*
X187297024Y-85522914D01*
X187297024Y-85522914D02*
X187201786Y-85570533D01*
X180609580Y-78729166D02*
X180657200Y-78776785D01*
X180657200Y-78776785D02*
X180704819Y-78919642D01*
X180704819Y-78919642D02*
X180704819Y-79014880D01*
X180704819Y-79014880D02*
X180657200Y-79157737D01*
X180657200Y-79157737D02*
X180561961Y-79252975D01*
X180561961Y-79252975D02*
X180466723Y-79300594D01*
X180466723Y-79300594D02*
X180276247Y-79348213D01*
X180276247Y-79348213D02*
X180133390Y-79348213D01*
X180133390Y-79348213D02*
X179942914Y-79300594D01*
X179942914Y-79300594D02*
X179847676Y-79252975D01*
X179847676Y-79252975D02*
X179752438Y-79157737D01*
X179752438Y-79157737D02*
X179704819Y-79014880D01*
X179704819Y-79014880D02*
X179704819Y-78919642D01*
X179704819Y-78919642D02*
X179752438Y-78776785D01*
X179752438Y-78776785D02*
X179800057Y-78729166D01*
X180704819Y-78252975D02*
X180704819Y-78062499D01*
X180704819Y-78062499D02*
X180657200Y-77967261D01*
X180657200Y-77967261D02*
X180609580Y-77919642D01*
X180609580Y-77919642D02*
X180466723Y-77824404D01*
X180466723Y-77824404D02*
X180276247Y-77776785D01*
X180276247Y-77776785D02*
X179895295Y-77776785D01*
X179895295Y-77776785D02*
X179800057Y-77824404D01*
X179800057Y-77824404D02*
X179752438Y-77872023D01*
X179752438Y-77872023D02*
X179704819Y-77967261D01*
X179704819Y-77967261D02*
X179704819Y-78157737D01*
X179704819Y-78157737D02*
X179752438Y-78252975D01*
X179752438Y-78252975D02*
X179800057Y-78300594D01*
X179800057Y-78300594D02*
X179895295Y-78348213D01*
X179895295Y-78348213D02*
X180133390Y-78348213D01*
X180133390Y-78348213D02*
X180228628Y-78300594D01*
X180228628Y-78300594D02*
X180276247Y-78252975D01*
X180276247Y-78252975D02*
X180323866Y-78157737D01*
X180323866Y-78157737D02*
X180323866Y-77967261D01*
X180323866Y-77967261D02*
X180276247Y-77872023D01*
X180276247Y-77872023D02*
X180228628Y-77824404D01*
X180228628Y-77824404D02*
X180133390Y-77776785D01*
X181676667Y-111299700D02*
X181819524Y-111347319D01*
X181819524Y-111347319D02*
X182057619Y-111347319D01*
X182057619Y-111347319D02*
X182152857Y-111299700D01*
X182152857Y-111299700D02*
X182200476Y-111252080D01*
X182200476Y-111252080D02*
X182248095Y-111156842D01*
X182248095Y-111156842D02*
X182248095Y-111061604D01*
X182248095Y-111061604D02*
X182200476Y-110966366D01*
X182200476Y-110966366D02*
X182152857Y-110918747D01*
X182152857Y-110918747D02*
X182057619Y-110871128D01*
X182057619Y-110871128D02*
X181867143Y-110823509D01*
X181867143Y-110823509D02*
X181771905Y-110775890D01*
X181771905Y-110775890D02*
X181724286Y-110728271D01*
X181724286Y-110728271D02*
X181676667Y-110633033D01*
X181676667Y-110633033D02*
X181676667Y-110537795D01*
X181676667Y-110537795D02*
X181724286Y-110442557D01*
X181724286Y-110442557D02*
X181771905Y-110394938D01*
X181771905Y-110394938D02*
X181867143Y-110347319D01*
X181867143Y-110347319D02*
X182105238Y-110347319D01*
X182105238Y-110347319D02*
X182248095Y-110394938D01*
X182581429Y-110347319D02*
X182819524Y-111347319D01*
X182819524Y-111347319D02*
X183010000Y-110633033D01*
X183010000Y-110633033D02*
X183200476Y-111347319D01*
X183200476Y-111347319D02*
X183438572Y-110347319D01*
X184343333Y-111347319D02*
X183771905Y-111347319D01*
X184057619Y-111347319D02*
X184057619Y-110347319D01*
X184057619Y-110347319D02*
X183962381Y-110490176D01*
X183962381Y-110490176D02*
X183867143Y-110585414D01*
X183867143Y-110585414D02*
X183771905Y-110633033D01*
X186916667Y-118907200D02*
X187059524Y-118954819D01*
X187059524Y-118954819D02*
X187297619Y-118954819D01*
X187297619Y-118954819D02*
X187392857Y-118907200D01*
X187392857Y-118907200D02*
X187440476Y-118859580D01*
X187440476Y-118859580D02*
X187488095Y-118764342D01*
X187488095Y-118764342D02*
X187488095Y-118669104D01*
X187488095Y-118669104D02*
X187440476Y-118573866D01*
X187440476Y-118573866D02*
X187392857Y-118526247D01*
X187392857Y-118526247D02*
X187297619Y-118478628D01*
X187297619Y-118478628D02*
X187107143Y-118431009D01*
X187107143Y-118431009D02*
X187011905Y-118383390D01*
X187011905Y-118383390D02*
X186964286Y-118335771D01*
X186964286Y-118335771D02*
X186916667Y-118240533D01*
X186916667Y-118240533D02*
X186916667Y-118145295D01*
X186916667Y-118145295D02*
X186964286Y-118050057D01*
X186964286Y-118050057D02*
X187011905Y-118002438D01*
X187011905Y-118002438D02*
X187107143Y-117954819D01*
X187107143Y-117954819D02*
X187345238Y-117954819D01*
X187345238Y-117954819D02*
X187488095Y-118002438D01*
X187821429Y-117954819D02*
X188059524Y-118954819D01*
X188059524Y-118954819D02*
X188250000Y-118240533D01*
X188250000Y-118240533D02*
X188440476Y-118954819D01*
X188440476Y-118954819D02*
X188678572Y-117954819D01*
X189011905Y-118050057D02*
X189059524Y-118002438D01*
X189059524Y-118002438D02*
X189154762Y-117954819D01*
X189154762Y-117954819D02*
X189392857Y-117954819D01*
X189392857Y-117954819D02*
X189488095Y-118002438D01*
X189488095Y-118002438D02*
X189535714Y-118050057D01*
X189535714Y-118050057D02*
X189583333Y-118145295D01*
X189583333Y-118145295D02*
X189583333Y-118240533D01*
X189583333Y-118240533D02*
X189535714Y-118383390D01*
X189535714Y-118383390D02*
X188964286Y-118954819D01*
X188964286Y-118954819D02*
X189583333Y-118954819D01*
X156624819Y-89716666D02*
X156148628Y-90049999D01*
X156624819Y-90288094D02*
X155624819Y-90288094D01*
X155624819Y-90288094D02*
X155624819Y-89907142D01*
X155624819Y-89907142D02*
X155672438Y-89811904D01*
X155672438Y-89811904D02*
X155720057Y-89764285D01*
X155720057Y-89764285D02*
X155815295Y-89716666D01*
X155815295Y-89716666D02*
X155958152Y-89716666D01*
X155958152Y-89716666D02*
X156053390Y-89764285D01*
X156053390Y-89764285D02*
X156101009Y-89811904D01*
X156101009Y-89811904D02*
X156148628Y-89907142D01*
X156148628Y-89907142D02*
X156148628Y-90288094D01*
X156624819Y-88764285D02*
X156624819Y-89335713D01*
X156624819Y-89049999D02*
X155624819Y-89049999D01*
X155624819Y-89049999D02*
X155767676Y-89145237D01*
X155767676Y-89145237D02*
X155862914Y-89240475D01*
X155862914Y-89240475D02*
X155910533Y-89335713D01*
X172916666Y-82681009D02*
X172583333Y-82681009D01*
X172583333Y-83204819D02*
X172583333Y-82204819D01*
X172583333Y-82204819D02*
X173059523Y-82204819D01*
X173773809Y-82681009D02*
X173916666Y-82728628D01*
X173916666Y-82728628D02*
X173964285Y-82776247D01*
X173964285Y-82776247D02*
X174011904Y-82871485D01*
X174011904Y-82871485D02*
X174011904Y-83014342D01*
X174011904Y-83014342D02*
X173964285Y-83109580D01*
X173964285Y-83109580D02*
X173916666Y-83157200D01*
X173916666Y-83157200D02*
X173821428Y-83204819D01*
X173821428Y-83204819D02*
X173440476Y-83204819D01*
X173440476Y-83204819D02*
X173440476Y-82204819D01*
X173440476Y-82204819D02*
X173773809Y-82204819D01*
X173773809Y-82204819D02*
X173869047Y-82252438D01*
X173869047Y-82252438D02*
X173916666Y-82300057D01*
X173916666Y-82300057D02*
X173964285Y-82395295D01*
X173964285Y-82395295D02*
X173964285Y-82490533D01*
X173964285Y-82490533D02*
X173916666Y-82585771D01*
X173916666Y-82585771D02*
X173869047Y-82633390D01*
X173869047Y-82633390D02*
X173773809Y-82681009D01*
X173773809Y-82681009D02*
X173440476Y-82681009D01*
X174964285Y-83204819D02*
X174392857Y-83204819D01*
X174678571Y-83204819D02*
X174678571Y-82204819D01*
X174678571Y-82204819D02*
X174583333Y-82347676D01*
X174583333Y-82347676D02*
X174488095Y-82442914D01*
X174488095Y-82442914D02*
X174392857Y-82490533D01*
X186261905Y-89674819D02*
X186261905Y-88674819D01*
X186261905Y-88674819D02*
X186500000Y-88674819D01*
X186500000Y-88674819D02*
X186642857Y-88722438D01*
X186642857Y-88722438D02*
X186738095Y-88817676D01*
X186738095Y-88817676D02*
X186785714Y-88912914D01*
X186785714Y-88912914D02*
X186833333Y-89103390D01*
X186833333Y-89103390D02*
X186833333Y-89246247D01*
X186833333Y-89246247D02*
X186785714Y-89436723D01*
X186785714Y-89436723D02*
X186738095Y-89531961D01*
X186738095Y-89531961D02*
X186642857Y-89627200D01*
X186642857Y-89627200D02*
X186500000Y-89674819D01*
X186500000Y-89674819D02*
X186261905Y-89674819D01*
X187214286Y-88770057D02*
X187261905Y-88722438D01*
X187261905Y-88722438D02*
X187357143Y-88674819D01*
X187357143Y-88674819D02*
X187595238Y-88674819D01*
X187595238Y-88674819D02*
X187690476Y-88722438D01*
X187690476Y-88722438D02*
X187738095Y-88770057D01*
X187738095Y-88770057D02*
X187785714Y-88865295D01*
X187785714Y-88865295D02*
X187785714Y-88960533D01*
X187785714Y-88960533D02*
X187738095Y-89103390D01*
X187738095Y-89103390D02*
X187166667Y-89674819D01*
X187166667Y-89674819D02*
X187785714Y-89674819D01*
X176959580Y-78729166D02*
X177007200Y-78776785D01*
X177007200Y-78776785D02*
X177054819Y-78919642D01*
X177054819Y-78919642D02*
X177054819Y-79014880D01*
X177054819Y-79014880D02*
X177007200Y-79157737D01*
X177007200Y-79157737D02*
X176911961Y-79252975D01*
X176911961Y-79252975D02*
X176816723Y-79300594D01*
X176816723Y-79300594D02*
X176626247Y-79348213D01*
X176626247Y-79348213D02*
X176483390Y-79348213D01*
X176483390Y-79348213D02*
X176292914Y-79300594D01*
X176292914Y-79300594D02*
X176197676Y-79252975D01*
X176197676Y-79252975D02*
X176102438Y-79157737D01*
X176102438Y-79157737D02*
X176054819Y-79014880D01*
X176054819Y-79014880D02*
X176054819Y-78919642D01*
X176054819Y-78919642D02*
X176102438Y-78776785D01*
X176102438Y-78776785D02*
X176150057Y-78729166D01*
X176483390Y-78157737D02*
X176435771Y-78252975D01*
X176435771Y-78252975D02*
X176388152Y-78300594D01*
X176388152Y-78300594D02*
X176292914Y-78348213D01*
X176292914Y-78348213D02*
X176245295Y-78348213D01*
X176245295Y-78348213D02*
X176150057Y-78300594D01*
X176150057Y-78300594D02*
X176102438Y-78252975D01*
X176102438Y-78252975D02*
X176054819Y-78157737D01*
X176054819Y-78157737D02*
X176054819Y-77967261D01*
X176054819Y-77967261D02*
X176102438Y-77872023D01*
X176102438Y-77872023D02*
X176150057Y-77824404D01*
X176150057Y-77824404D02*
X176245295Y-77776785D01*
X176245295Y-77776785D02*
X176292914Y-77776785D01*
X176292914Y-77776785D02*
X176388152Y-77824404D01*
X176388152Y-77824404D02*
X176435771Y-77872023D01*
X176435771Y-77872023D02*
X176483390Y-77967261D01*
X176483390Y-77967261D02*
X176483390Y-78157737D01*
X176483390Y-78157737D02*
X176531009Y-78252975D01*
X176531009Y-78252975D02*
X176578628Y-78300594D01*
X176578628Y-78300594D02*
X176673866Y-78348213D01*
X176673866Y-78348213D02*
X176864342Y-78348213D01*
X176864342Y-78348213D02*
X176959580Y-78300594D01*
X176959580Y-78300594D02*
X177007200Y-78252975D01*
X177007200Y-78252975D02*
X177054819Y-78157737D01*
X177054819Y-78157737D02*
X177054819Y-77967261D01*
X177054819Y-77967261D02*
X177007200Y-77872023D01*
X177007200Y-77872023D02*
X176959580Y-77824404D01*
X176959580Y-77824404D02*
X176864342Y-77776785D01*
X176864342Y-77776785D02*
X176673866Y-77776785D01*
X176673866Y-77776785D02*
X176578628Y-77824404D01*
X176578628Y-77824404D02*
X176531009Y-77872023D01*
X176531009Y-77872023D02*
X176483390Y-77967261D01*
X183859580Y-73104166D02*
X183907200Y-73151785D01*
X183907200Y-73151785D02*
X183954819Y-73294642D01*
X183954819Y-73294642D02*
X183954819Y-73389880D01*
X183954819Y-73389880D02*
X183907200Y-73532737D01*
X183907200Y-73532737D02*
X183811961Y-73627975D01*
X183811961Y-73627975D02*
X183716723Y-73675594D01*
X183716723Y-73675594D02*
X183526247Y-73723213D01*
X183526247Y-73723213D02*
X183383390Y-73723213D01*
X183383390Y-73723213D02*
X183192914Y-73675594D01*
X183192914Y-73675594D02*
X183097676Y-73627975D01*
X183097676Y-73627975D02*
X183002438Y-73532737D01*
X183002438Y-73532737D02*
X182954819Y-73389880D01*
X182954819Y-73389880D02*
X182954819Y-73294642D01*
X182954819Y-73294642D02*
X183002438Y-73151785D01*
X183002438Y-73151785D02*
X183050057Y-73104166D01*
X182954819Y-72247023D02*
X182954819Y-72437499D01*
X182954819Y-72437499D02*
X183002438Y-72532737D01*
X183002438Y-72532737D02*
X183050057Y-72580356D01*
X183050057Y-72580356D02*
X183192914Y-72675594D01*
X183192914Y-72675594D02*
X183383390Y-72723213D01*
X183383390Y-72723213D02*
X183764342Y-72723213D01*
X183764342Y-72723213D02*
X183859580Y-72675594D01*
X183859580Y-72675594D02*
X183907200Y-72627975D01*
X183907200Y-72627975D02*
X183954819Y-72532737D01*
X183954819Y-72532737D02*
X183954819Y-72342261D01*
X183954819Y-72342261D02*
X183907200Y-72247023D01*
X183907200Y-72247023D02*
X183859580Y-72199404D01*
X183859580Y-72199404D02*
X183764342Y-72151785D01*
X183764342Y-72151785D02*
X183526247Y-72151785D01*
X183526247Y-72151785D02*
X183431009Y-72199404D01*
X183431009Y-72199404D02*
X183383390Y-72247023D01*
X183383390Y-72247023D02*
X183335771Y-72342261D01*
X183335771Y-72342261D02*
X183335771Y-72532737D01*
X183335771Y-72532737D02*
X183383390Y-72627975D01*
X183383390Y-72627975D02*
X183431009Y-72675594D01*
X183431009Y-72675594D02*
X183526247Y-72723213D01*
X153124819Y-89716666D02*
X152648628Y-90049999D01*
X153124819Y-90288094D02*
X152124819Y-90288094D01*
X152124819Y-90288094D02*
X152124819Y-89907142D01*
X152124819Y-89907142D02*
X152172438Y-89811904D01*
X152172438Y-89811904D02*
X152220057Y-89764285D01*
X152220057Y-89764285D02*
X152315295Y-89716666D01*
X152315295Y-89716666D02*
X152458152Y-89716666D01*
X152458152Y-89716666D02*
X152553390Y-89764285D01*
X152553390Y-89764285D02*
X152601009Y-89811904D01*
X152601009Y-89811904D02*
X152648628Y-89907142D01*
X152648628Y-89907142D02*
X152648628Y-90288094D01*
X152220057Y-89335713D02*
X152172438Y-89288094D01*
X152172438Y-89288094D02*
X152124819Y-89192856D01*
X152124819Y-89192856D02*
X152124819Y-88954761D01*
X152124819Y-88954761D02*
X152172438Y-88859523D01*
X152172438Y-88859523D02*
X152220057Y-88811904D01*
X152220057Y-88811904D02*
X152315295Y-88764285D01*
X152315295Y-88764285D02*
X152410533Y-88764285D01*
X152410533Y-88764285D02*
X152553390Y-88811904D01*
X152553390Y-88811904D02*
X153124819Y-89383332D01*
X153124819Y-89383332D02*
X153124819Y-88764285D01*
X112491666Y-105814819D02*
X112491666Y-106529104D01*
X112491666Y-106529104D02*
X112444047Y-106671961D01*
X112444047Y-106671961D02*
X112348809Y-106767200D01*
X112348809Y-106767200D02*
X112205952Y-106814819D01*
X112205952Y-106814819D02*
X112110714Y-106814819D01*
X113491666Y-106814819D02*
X112920238Y-106814819D01*
X113205952Y-106814819D02*
X113205952Y-105814819D01*
X113205952Y-105814819D02*
X113110714Y-105957676D01*
X113110714Y-105957676D02*
X113015476Y-106052914D01*
X113015476Y-106052914D02*
X112920238Y-106100533D01*
X106988095Y-122204819D02*
X106988095Y-121204819D01*
X106988095Y-121681009D02*
X107559523Y-121681009D01*
X107559523Y-122204819D02*
X107559523Y-121204819D01*
X107940476Y-121204819D02*
X108559523Y-121204819D01*
X108559523Y-121204819D02*
X108226190Y-121585771D01*
X108226190Y-121585771D02*
X108369047Y-121585771D01*
X108369047Y-121585771D02*
X108464285Y-121633390D01*
X108464285Y-121633390D02*
X108511904Y-121681009D01*
X108511904Y-121681009D02*
X108559523Y-121776247D01*
X108559523Y-121776247D02*
X108559523Y-122014342D01*
X108559523Y-122014342D02*
X108511904Y-122109580D01*
X108511904Y-122109580D02*
X108464285Y-122157200D01*
X108464285Y-122157200D02*
X108369047Y-122204819D01*
X108369047Y-122204819D02*
X108083333Y-122204819D01*
X108083333Y-122204819D02*
X107988095Y-122157200D01*
X107988095Y-122157200D02*
X107940476Y-122109580D01*
X120994819Y-78501904D02*
X121804342Y-78501904D01*
X121804342Y-78501904D02*
X121899580Y-78454285D01*
X121899580Y-78454285D02*
X121947200Y-78406666D01*
X121947200Y-78406666D02*
X121994819Y-78311428D01*
X121994819Y-78311428D02*
X121994819Y-78120952D01*
X121994819Y-78120952D02*
X121947200Y-78025714D01*
X121947200Y-78025714D02*
X121899580Y-77978095D01*
X121899580Y-77978095D02*
X121804342Y-77930476D01*
X121804342Y-77930476D02*
X120994819Y-77930476D01*
X121328152Y-77025714D02*
X121994819Y-77025714D01*
X120947200Y-77263809D02*
X121661485Y-77501904D01*
X121661485Y-77501904D02*
X121661485Y-76882857D01*
X108833333Y-77359580D02*
X108785714Y-77407200D01*
X108785714Y-77407200D02*
X108642857Y-77454819D01*
X108642857Y-77454819D02*
X108547619Y-77454819D01*
X108547619Y-77454819D02*
X108404762Y-77407200D01*
X108404762Y-77407200D02*
X108309524Y-77311961D01*
X108309524Y-77311961D02*
X108261905Y-77216723D01*
X108261905Y-77216723D02*
X108214286Y-77026247D01*
X108214286Y-77026247D02*
X108214286Y-76883390D01*
X108214286Y-76883390D02*
X108261905Y-76692914D01*
X108261905Y-76692914D02*
X108309524Y-76597676D01*
X108309524Y-76597676D02*
X108404762Y-76502438D01*
X108404762Y-76502438D02*
X108547619Y-76454819D01*
X108547619Y-76454819D02*
X108642857Y-76454819D01*
X108642857Y-76454819D02*
X108785714Y-76502438D01*
X108785714Y-76502438D02*
X108833333Y-76550057D01*
X109738095Y-76454819D02*
X109261905Y-76454819D01*
X109261905Y-76454819D02*
X109214286Y-76931009D01*
X109214286Y-76931009D02*
X109261905Y-76883390D01*
X109261905Y-76883390D02*
X109357143Y-76835771D01*
X109357143Y-76835771D02*
X109595238Y-76835771D01*
X109595238Y-76835771D02*
X109690476Y-76883390D01*
X109690476Y-76883390D02*
X109738095Y-76931009D01*
X109738095Y-76931009D02*
X109785714Y-77026247D01*
X109785714Y-77026247D02*
X109785714Y-77264342D01*
X109785714Y-77264342D02*
X109738095Y-77359580D01*
X109738095Y-77359580D02*
X109690476Y-77407200D01*
X109690476Y-77407200D02*
X109595238Y-77454819D01*
X109595238Y-77454819D02*
X109357143Y-77454819D01*
X109357143Y-77454819D02*
X109261905Y-77407200D01*
X109261905Y-77407200D02*
X109214286Y-77359580D01*
X183738095Y-122704819D02*
X183738095Y-121704819D01*
X183738095Y-122181009D02*
X184309523Y-122181009D01*
X184309523Y-122704819D02*
X184309523Y-121704819D01*
X185214285Y-122038152D02*
X185214285Y-122704819D01*
X184976190Y-121657200D02*
X184738095Y-122371485D01*
X184738095Y-122371485D02*
X185357142Y-122371485D01*
X187359580Y-73104166D02*
X187407200Y-73151785D01*
X187407200Y-73151785D02*
X187454819Y-73294642D01*
X187454819Y-73294642D02*
X187454819Y-73389880D01*
X187454819Y-73389880D02*
X187407200Y-73532737D01*
X187407200Y-73532737D02*
X187311961Y-73627975D01*
X187311961Y-73627975D02*
X187216723Y-73675594D01*
X187216723Y-73675594D02*
X187026247Y-73723213D01*
X187026247Y-73723213D02*
X186883390Y-73723213D01*
X186883390Y-73723213D02*
X186692914Y-73675594D01*
X186692914Y-73675594D02*
X186597676Y-73627975D01*
X186597676Y-73627975D02*
X186502438Y-73532737D01*
X186502438Y-73532737D02*
X186454819Y-73389880D01*
X186454819Y-73389880D02*
X186454819Y-73294642D01*
X186454819Y-73294642D02*
X186502438Y-73151785D01*
X186502438Y-73151785D02*
X186550057Y-73104166D01*
X186454819Y-72770832D02*
X186454819Y-72104166D01*
X186454819Y-72104166D02*
X187454819Y-72532737D01*
D12*
%TO.C,J5*%
X163254000Y-123246000D02*
X177754000Y-123246000D01*
X163254000Y-132246000D02*
X163254000Y-123346000D01*
X166119000Y-130521000D02*
X167389000Y-130521000D01*
X169054000Y-130746000D02*
X173454000Y-130746000D01*
X169054000Y-132246000D02*
X163254000Y-132246000D01*
X169054000Y-132246000D02*
X169054000Y-130746000D01*
X173454000Y-130746000D02*
X173454000Y-132246000D01*
X173454000Y-132246000D02*
X169054000Y-132246000D01*
X177754000Y-123246000D02*
X177754000Y-132246000D01*
X177754000Y-132246000D02*
X173454000Y-132246000D01*
D13*
%TO.C,AE1*%
X159800000Y-130950000D02*
X156200000Y-130950000D01*
X159850000Y-127050000D02*
X158050000Y-127050000D01*
D14*
X159600000Y-129000000D02*
G75*
G02*
X159400000Y-129000000I-100000J0D01*
G01*
X159400000Y-129000000D02*
G75*
G02*
X159600000Y-129000000I100000J0D01*
G01*
D10*
%TO.C,J2*%
X136390000Y-63874603D02*
X137500000Y-63874603D01*
X136390000Y-64984603D02*
X136390000Y-63874603D01*
X136390000Y-65984603D02*
X136390000Y-68094603D01*
X136390000Y-65984603D02*
X138610000Y-65984603D01*
X136390000Y-68094603D02*
X138610000Y-68094603D01*
X138610000Y-65984603D02*
X138610000Y-68094603D01*
%TO.C,J4*%
X141757660Y-62384603D02*
X147507660Y-62384603D01*
X141757660Y-68384603D02*
X141757660Y-62384603D01*
X143107660Y-67274603D02*
X148187660Y-67274603D01*
X143107660Y-68284603D02*
X143107660Y-67274603D01*
X148187660Y-67274603D02*
X148187660Y-68284603D01*
X148857660Y-62434603D02*
X152057660Y-62434603D01*
X152057660Y-62434603D02*
X152057660Y-68384603D01*
X152057660Y-68384603D02*
X141757660Y-68384603D01*
%TO.C,C10*%
X184240000Y-79273752D02*
X184240000Y-77851248D01*
X186060000Y-79273752D02*
X186060000Y-77851248D01*
%TO.C,R3*%
X120090000Y-106722936D02*
X120090000Y-108177064D01*
X121910000Y-106722936D02*
X121910000Y-108177064D01*
%TO.C,J3*%
X119757660Y-62384603D02*
X125507660Y-62384603D01*
X119757660Y-68384603D02*
X119757660Y-62384603D01*
X121107660Y-67274603D02*
X126187660Y-67274603D01*
X121107660Y-68284603D02*
X121107660Y-67274603D01*
X126187660Y-67274603D02*
X126187660Y-68284603D01*
X126857660Y-62434603D02*
X130057660Y-62434603D01*
X130057660Y-62434603D02*
X130057660Y-68384603D01*
X130057660Y-68384603D02*
X119757660Y-68384603D01*
%TO.C,R5*%
X120090000Y-101777064D02*
X120090000Y-100322936D01*
X121910000Y-101777064D02*
X121910000Y-100322936D01*
D15*
%TO.C,U1*%
X125925000Y-73925000D02*
X129380000Y-73925000D01*
X125925000Y-77380000D02*
X125925000Y-73925000D01*
X125925000Y-98075000D02*
X125925000Y-94620000D01*
X129380000Y-98075000D02*
X125925000Y-98075000D01*
X146620000Y-73925000D02*
X150075000Y-73925000D01*
X150075000Y-73925000D02*
X150075000Y-77380000D01*
X150075000Y-94620000D02*
X150075000Y-98075000D01*
X150075000Y-98075000D02*
X146620000Y-98075000D01*
D13*
X124100000Y-78000000D02*
G75*
G02*
X123900000Y-78000000I-100000J0D01*
G01*
X123900000Y-78000000D02*
G75*
G02*
X124100000Y-78000000I100000J0D01*
G01*
D10*
%TO.C,R4*%
X105777064Y-86590000D02*
X104322936Y-86590000D01*
X105777064Y-88410000D02*
X104322936Y-88410000D01*
%TO.C,R6*%
X172772936Y-87590000D02*
X174227064Y-87590000D01*
X172772936Y-89410000D02*
X174227064Y-89410000D01*
%TO.C,C3*%
X105648752Y-81590000D02*
X104226248Y-81590000D01*
X105648752Y-83410000D02*
X104226248Y-83410000D01*
D15*
%TO.C,U3*%
X125000000Y-103500000D02*
X151000000Y-103500000D01*
X125000000Y-129500000D02*
X125000000Y-103500000D01*
X131000000Y-127500000D02*
X131000000Y-129500000D01*
X131000000Y-129500000D02*
X125000000Y-129500000D01*
X145000000Y-127500000D02*
X131000000Y-127500000D01*
X145000000Y-129500000D02*
X145000000Y-127500000D01*
X151000000Y-103500000D02*
X151000000Y-129500000D01*
X151000000Y-129500000D02*
X145000000Y-129500000D01*
D13*
X134100000Y-103000000D02*
G75*
G02*
X133900000Y-103000000I-100000J0D01*
G01*
X133900000Y-103000000D02*
G75*
G02*
X134100000Y-103000000I100000J0D01*
G01*
%TO.C,AE2*%
X158150000Y-60450000D02*
X159950000Y-60450000D01*
X158200000Y-56550000D02*
X161800000Y-56550000D01*
D14*
X158600000Y-58500000D02*
G75*
G02*
X158400000Y-58500000I-100000J0D01*
G01*
X158400000Y-58500000D02*
G75*
G02*
X158600000Y-58500000I100000J0D01*
G01*
D10*
%TO.C,C1*%
X177540000Y-73648752D02*
X177540000Y-72226248D01*
X179360000Y-73648752D02*
X179360000Y-72226248D01*
%TO.C,C11*%
X187590000Y-79273752D02*
X187590000Y-77851248D01*
X189410000Y-79273752D02*
X189410000Y-77851248D01*
%TO.C,U2*%
X156390000Y-73890000D02*
X156840000Y-73890000D01*
X156390000Y-74340000D02*
X156390000Y-73890000D01*
X156390000Y-81110000D02*
X156390000Y-80660000D01*
X156840000Y-81110000D02*
X156390000Y-81110000D01*
X163160000Y-73890000D02*
X163610000Y-73890000D01*
X163610000Y-73890000D02*
X163610000Y-74340000D01*
X163610000Y-80660000D02*
X163610000Y-81110000D01*
X163610000Y-81110000D02*
X163160000Y-81110000D01*
X164590000Y-81130000D02*
X163910000Y-81130000D01*
X164250000Y-80660000D01*
X164590000Y-81130000D01*
G36*
X164590000Y-81130000D02*
G01*
X163910000Y-81130000D01*
X164250000Y-80660000D01*
X164590000Y-81130000D01*
G37*
%TO.C,C4*%
X104788748Y-72590000D02*
X106211252Y-72590000D01*
X104788748Y-74410000D02*
X106211252Y-74410000D01*
%TO.C,R7*%
X166322936Y-87590000D02*
X167777064Y-87590000D01*
X166322936Y-89410000D02*
X167777064Y-89410000D01*
%TO.C,C2*%
X180890000Y-73648752D02*
X180890000Y-72226248D01*
X182710000Y-73648752D02*
X182710000Y-72226248D01*
%TO.C,J6*%
X180090000Y-93890000D02*
X180090000Y-92810000D01*
X180090000Y-98110000D02*
X179660000Y-98110000D01*
X180090000Y-99190000D02*
X180090000Y-98110000D01*
X185240000Y-92090000D02*
X182010000Y-92090000D01*
X185240000Y-99910000D02*
X182010000Y-99910000D01*
X189410000Y-92090000D02*
X187460000Y-92090000D01*
X189410000Y-92090000D02*
X189410000Y-99910000D01*
X189410000Y-99910000D02*
X187460000Y-99910000D01*
%TO.C,D1*%
X185387500Y-85135000D02*
X189447500Y-85135000D01*
X189447500Y-82865000D02*
X185387500Y-82865000D01*
X189447500Y-85135000D02*
X189447500Y-82865000D01*
%TO.C,C9*%
X180890000Y-79273752D02*
X180890000Y-77851248D01*
X182710000Y-79273752D02*
X182710000Y-77851248D01*
%TO.C,SW1*%
X180590000Y-105642500D02*
X180590000Y-105952500D01*
X180590000Y-105642500D02*
X189410000Y-105642500D01*
X180590000Y-110162500D02*
X180590000Y-109852500D01*
X186500000Y-110862500D02*
X187500000Y-110862500D01*
X187000000Y-110362500D02*
X186500000Y-110862500D01*
X187500000Y-110862500D02*
X187000000Y-110362500D01*
X189410000Y-105642500D02*
X189410000Y-105952500D01*
X189410000Y-109852500D02*
X189410000Y-110162500D01*
X189410000Y-110162500D02*
X180590000Y-110162500D01*
%TO.C,SW2*%
X181890000Y-113900000D02*
X181890000Y-115640000D01*
X181890000Y-117500000D02*
X181890000Y-115760000D01*
X188210000Y-113900000D02*
X181890000Y-113900000D01*
X188210000Y-113900000D02*
X188210000Y-115640000D01*
X188210000Y-117500000D02*
X181890000Y-117500000D01*
X188210000Y-117500000D02*
X188210000Y-116550000D01*
X190250000Y-116550000D02*
X188210000Y-116550000D01*
%TO.C,R1*%
X157090000Y-90277064D02*
X157090000Y-88822936D01*
X158910000Y-90277064D02*
X158910000Y-88822936D01*
%TO.C,FB1*%
X167412000Y-79770000D02*
G75*
G02*
X167412000Y-77230000I508000J1270000D01*
G01*
X167935535Y-76480428D02*
G75*
G02*
X172746000Y-76214000I2524465J-2019572D01*
G01*
X172760068Y-80800068D02*
G75*
G02*
X167920000Y-80532000I-2300068J2300068D01*
G01*
X173508000Y-77230000D02*
G75*
G02*
X173508000Y-79770000I-508000J-1270000D01*
G01*
%TO.C,D2*%
X185400000Y-88525000D02*
X189460000Y-88525000D01*
X189460000Y-86255000D02*
X185400000Y-86255000D01*
X189460000Y-88525000D02*
X189460000Y-86255000D01*
%TO.C,C8*%
X177540000Y-79273752D02*
X177540000Y-77851248D01*
X179360000Y-79273752D02*
X179360000Y-77851248D01*
%TO.C,C6*%
X184240000Y-73648752D02*
X184240000Y-72226248D01*
X186060000Y-73648752D02*
X186060000Y-72226248D01*
%TO.C,R2*%
X153590000Y-90277064D02*
X153590000Y-88822936D01*
X155410000Y-90277064D02*
X155410000Y-88822936D01*
D15*
%TO.C,J1*%
X104911500Y-91661500D02*
X104911500Y-96561500D01*
X104911500Y-91661500D02*
X106696500Y-91661500D01*
X104911500Y-104438500D02*
X104911500Y-99288500D01*
X106771500Y-104438500D02*
X104911500Y-104438500D01*
X113303500Y-91661500D02*
X115088500Y-91661500D01*
X115088500Y-91661500D02*
X115088500Y-96561500D01*
X115088500Y-99288500D02*
X115088500Y-104438500D01*
X115088500Y-104438500D02*
X113228500Y-104438500D01*
D16*
X106725000Y-90900000D02*
G75*
G02*
X106475000Y-90900000I-125000J0D01*
G01*
X106475000Y-90900000D02*
G75*
G02*
X106725000Y-90900000I125000J0D01*
G01*
D10*
%TO.C,U4*%
X113590000Y-74430000D02*
X113860000Y-74430000D01*
X113590000Y-80850000D02*
X113590000Y-74430000D01*
X120490000Y-74430000D02*
X120220000Y-74430000D01*
X120490000Y-80850000D02*
X120490000Y-74430000D01*
X120650000Y-73040000D02*
X120180000Y-72700000D01*
X120650000Y-72360000D01*
X120650000Y-73040000D01*
G36*
X120650000Y-73040000D02*
G01*
X120180000Y-72700000D01*
X120650000Y-72360000D01*
X120650000Y-73040000D01*
G37*
%TO.C,C5*%
X104788748Y-75940000D02*
X106211252Y-75940000D01*
X104788748Y-77760000D02*
X106211252Y-77760000D01*
%TO.C,C7*%
X187590000Y-73648752D02*
X187590000Y-72226248D01*
X189410000Y-73648752D02*
X189410000Y-72226248D01*
%TD*%
%LPC*%
D17*
%TO.C,J5*%
X168174000Y-129016000D03*
X168174000Y-126476000D03*
X173500000Y-129000000D03*
X170714000Y-126476000D03*
X170714000Y-129016000D03*
X173500000Y-126476000D03*
%TD*%
D18*
%TO.C,AE1*%
X160725000Y-129000000D03*
X155275000Y-129000000D03*
D19*
X157075000Y-127475000D03*
%TD*%
D20*
%TO.C,J2*%
X137500000Y-64984603D03*
D21*
X137500000Y-66984603D03*
%TD*%
D22*
%TO.C,J4*%
X148187660Y-62824603D03*
D23*
X143107660Y-64984603D03*
D24*
X145647660Y-64984603D03*
X148187660Y-64984603D03*
X150727660Y-64984603D03*
%TD*%
D25*
%TO.C,C10*%
X185150000Y-80125000D03*
X185150000Y-77000000D03*
%TD*%
D26*
%TO.C,R3*%
X121000000Y-105900000D03*
X121000000Y-109000000D03*
%TD*%
D22*
%TO.C,J3*%
X126187660Y-62824603D03*
D23*
X121107660Y-64984603D03*
D24*
X123647660Y-64984603D03*
X126187660Y-64984603D03*
X128727660Y-64984603D03*
%TD*%
D27*
%TO.C,R5*%
X121000000Y-102600000D03*
X121000000Y-99500000D03*
%TD*%
D28*
%TO.C,U1*%
X126000000Y-78000000D03*
X126000000Y-79000000D03*
X126000000Y-80000000D03*
X126000000Y-81000000D03*
X126000000Y-82000000D03*
X126000000Y-83000000D03*
X126000000Y-84000000D03*
X126000000Y-85000000D03*
X126000000Y-86000000D03*
X126000000Y-87000000D03*
X126000000Y-88000000D03*
X126000000Y-89000000D03*
X126000000Y-90000000D03*
X126000000Y-91000000D03*
X126000000Y-92000000D03*
X126000000Y-93000000D03*
X126000000Y-94000000D03*
D29*
X130000000Y-98000000D03*
X131000000Y-98000000D03*
X132000000Y-98000000D03*
X133000000Y-98000000D03*
X134000000Y-98000000D03*
X135000000Y-98000000D03*
X136000000Y-98000000D03*
X137000000Y-98000000D03*
X138000000Y-98000000D03*
X139000000Y-98000000D03*
X140000000Y-98000000D03*
X141000000Y-98000000D03*
X142000000Y-98000000D03*
X143000000Y-98000000D03*
X144000000Y-98000000D03*
X145000000Y-98000000D03*
X146000000Y-98000000D03*
D28*
X150000000Y-94000000D03*
X150000000Y-93000000D03*
X150000000Y-92000000D03*
X150000000Y-91000000D03*
X150000000Y-90000000D03*
X150000000Y-89000000D03*
X150000000Y-88000000D03*
X150000000Y-87000000D03*
X150000000Y-86000000D03*
X150000000Y-85000000D03*
X150000000Y-84000000D03*
X150000000Y-83000000D03*
X150000000Y-82000000D03*
X150000000Y-81000000D03*
X150000000Y-80000000D03*
X150000000Y-79000000D03*
X150000000Y-78000000D03*
D29*
X146000000Y-74000000D03*
X145000000Y-74000000D03*
X144000000Y-74000000D03*
X143000000Y-74000000D03*
X142000000Y-74000000D03*
X141000000Y-74000000D03*
X140000000Y-74000000D03*
X139000000Y-74000000D03*
X138000000Y-74000000D03*
X137000000Y-74000000D03*
X136000000Y-74000000D03*
X135000000Y-74000000D03*
X134000000Y-74000000D03*
X133000000Y-74000000D03*
X132000000Y-74000000D03*
X131000000Y-74000000D03*
X130000000Y-74000000D03*
%TD*%
D30*
%TO.C,R4*%
X106600000Y-87500000D03*
X103500000Y-87500000D03*
%TD*%
D31*
%TO.C,R6*%
X171950000Y-88500000D03*
X175050000Y-88500000D03*
%TD*%
D32*
%TO.C,C3*%
X106500000Y-82500000D03*
X103375000Y-82500000D03*
%TD*%
D33*
%TO.C,U3*%
X134190000Y-105000000D03*
D34*
X136730000Y-105000000D03*
X139270000Y-105000000D03*
X141810000Y-105000000D03*
D35*
X127000000Y-105500000D03*
X149000000Y-105500000D03*
X149000000Y-127500000D03*
X127000000Y-127500000D03*
%TD*%
D36*
%TO.C,AE2*%
X157275000Y-58500000D03*
X162725000Y-58500000D03*
D37*
X160925000Y-60025000D03*
%TD*%
D25*
%TO.C,C1*%
X178450000Y-74500000D03*
X178450000Y-71375000D03*
%TD*%
%TO.C,C11*%
X188500000Y-80125000D03*
X188500000Y-77000000D03*
%TD*%
D38*
%TO.C,H2*%
X184500000Y-61500000D03*
%TD*%
D39*
%TO.C,U2*%
X164162500Y-80250000D03*
X164162500Y-79750000D03*
X164162500Y-79250000D03*
X164162500Y-78750000D03*
X164162500Y-78250000D03*
X164162500Y-77750000D03*
X164162500Y-77250000D03*
X164162500Y-76750000D03*
X164162500Y-76250000D03*
X164162500Y-75750000D03*
X164162500Y-75250000D03*
X164162500Y-74750000D03*
D40*
X162750000Y-73337500D03*
X162250000Y-73337500D03*
X161750000Y-73337500D03*
X161250000Y-73337500D03*
X160750000Y-73337500D03*
X160250000Y-73337500D03*
X159750000Y-73337500D03*
X159250000Y-73337500D03*
X158750000Y-73337500D03*
X158250000Y-73337500D03*
X157750000Y-73337500D03*
X157250000Y-73337500D03*
D39*
X155837500Y-74750000D03*
X155837500Y-75250000D03*
X155837500Y-75750000D03*
X155837500Y-76250000D03*
X155837500Y-76750000D03*
X155837500Y-77250000D03*
X155837500Y-77750000D03*
X155837500Y-78250000D03*
X155837500Y-78750000D03*
X155837500Y-79250000D03*
X155837500Y-79750000D03*
X155837500Y-80250000D03*
D40*
X157250000Y-81662500D03*
X157750000Y-81662500D03*
X158250000Y-81662500D03*
X158750000Y-81662500D03*
X159250000Y-81662500D03*
X159750000Y-81662500D03*
X160250000Y-81662500D03*
X160750000Y-81662500D03*
X161250000Y-81662500D03*
X161750000Y-81662500D03*
X162250000Y-81662500D03*
X162750000Y-81662500D03*
%TD*%
D41*
%TO.C,C4*%
X103937500Y-73500000D03*
X107062500Y-73500000D03*
%TD*%
D31*
%TO.C,R7*%
X165500000Y-88500000D03*
X168600000Y-88500000D03*
%TD*%
D25*
%TO.C,C2*%
X181800000Y-74500000D03*
X181800000Y-71375000D03*
%TD*%
D38*
%TO.C,H1*%
X108000000Y-62000000D03*
%TD*%
D42*
%TO.C,J6*%
X183500000Y-98200000D03*
X183500000Y-93800000D03*
D43*
X180800000Y-97600000D03*
X180800000Y-96800000D03*
X180800000Y-96000000D03*
X180800000Y-95200000D03*
X180800000Y-94400000D03*
D44*
X180900000Y-100450000D03*
X186350000Y-100450000D03*
X180900000Y-91550000D03*
X186350000Y-91550000D03*
%TD*%
D45*
%TO.C,D1*%
X188475000Y-84000000D03*
X185500000Y-84000000D03*
%TD*%
D25*
%TO.C,C9*%
X181800000Y-80125000D03*
X181800000Y-77000000D03*
%TD*%
D46*
%TO.C,SW1*%
X189100000Y-107902500D03*
X180900000Y-107902500D03*
D47*
X187000000Y-107902500D03*
D48*
X185000000Y-107902500D03*
X183000000Y-107902500D03*
%TD*%
D49*
%TO.C,SW2*%
X189500000Y-115700000D03*
X180600000Y-115700000D03*
%TD*%
D27*
%TO.C,R1*%
X158000000Y-91100000D03*
X158000000Y-88000000D03*
%TD*%
D50*
%TO.C,FB1*%
X173000000Y-78500000D03*
X167920000Y-78500000D03*
%TD*%
D45*
%TO.C,D2*%
X188487500Y-87390000D03*
X185512500Y-87390000D03*
%TD*%
D25*
%TO.C,C8*%
X178450000Y-80125000D03*
X178450000Y-77000000D03*
%TD*%
%TO.C,C6*%
X185150000Y-74500000D03*
X185150000Y-71375000D03*
%TD*%
D27*
%TO.C,R2*%
X154500000Y-91100000D03*
X154500000Y-88000000D03*
%TD*%
D51*
%TO.C,J1*%
X112540000Y-92075000D03*
X110000000Y-92075000D03*
X107460000Y-92075000D03*
D52*
X115250000Y-97925000D03*
X104750000Y-97925000D03*
D53*
X112540000Y-103925000D03*
X110500000Y-103925000D03*
X109000000Y-103925000D03*
X107460000Y-103925000D03*
%TD*%
D38*
%TO.C,H3*%
X108000000Y-126000000D03*
%TD*%
D54*
%TO.C,U4*%
X119320000Y-72700000D03*
D55*
X117040000Y-79000000D03*
D54*
X114760000Y-72700000D03*
%TD*%
D41*
%TO.C,C5*%
X103937500Y-76850000D03*
X107062500Y-76850000D03*
%TD*%
D38*
%TO.C,H4*%
X184500000Y-126500000D03*
%TD*%
D25*
%TO.C,C7*%
X188500000Y-74500000D03*
X188500000Y-71375000D03*
%TD*%
%LPD*%
M02*
